/* XPM */
static char *deab8c323e1c4486ba127621184cbb231sQIYQABRYE15sBQ[] = {
/* columns rows colors chars-per-pixel */
"40 40 179 2 ",
"   c #070705",
".  c #0C0404",
"X  c #0B0B04",
"o  c #110809",
"O  c #131103",
"+  c #1A1305",
"@  c #1E1A05",
"#  c #18150E",
"$  c #041117",
"%  c #271707",
"&  c #241D03",
"*  c #2D1A05",
"=  c #261909",
"-  c #272107",
";  c #2B2405",
":  c #2E2A05",
">  c #342D03",
",  c #342907",
"<  c #3B3506",
"1  c #3B330D",
"2  c #3C3A0A",
"3  c #202014",
"4  c #2A2719",
"5  c #332614",
"6  c #353211",
"7  c #2F2929",
"8  c #272622",
"9  c #342C23",
"0  c #373121",
"q  c #2E2E32",
"w  c #293234",
"e  c #2B333A",
"r  c #373739",
"t  c #3B3E3E",
"y  c #353A39",
"u  c #490206",
"i  c #481B08",
"p  c #4B1B07",
"a  c #57050B",
"s  c #6B030A",
"d  c #562D0F",
"f  c #463D04",
"g  c #493E06",
"h  c #4B2B12",
"j  c #763F16",
"k  c #433F33",
"l  c #4B4304",
"z  c #484107",
"x  c #524404",
"c  c #564D04",
"v  c #544A0A",
"b  c #5A4E02",
"n  c #5D5305",
"m  c #5A5307",
"M  c #544B10",
"N  c #615503",
"B  c #655B05",
"V  c #6B5F02",
"C  c #625B0B",
"Z  c #7A4018",
"A  c #774113",
"S  c #6E6305",
"D  c #726405",
"F  c #746904",
"G  c #7A6D04",
"H  c #766A08",
"J  c #7C7103",
"K  c #454126",
"L  c #504D24",
"P  c #424034",
"I  c #4B4937",
"U  c #3D4748",
"Y  c #474A4D",
"T  c #494744",
"R  c #475254",
"E  c #54595C",
"W  c #555556",
"Q  c #58594B",
"!  c #66665E",
"~  c #5A5F63",
"^  c #5C6667",
"/  c #646569",
"(  c #696A6C",
")  c #666C6C",
"_  c #6C6D72",
"`  c #6C7174",
"'  c #677278",
"]  c #757978",
"[  c #8C040E",
"{  c #99030C",
"}  c #D6111B",
"|  c #E0070F",
" . c #E40712",
".. c #E00815",
"X. c #864614",
"o. c #9E531A",
"O. c #837205",
"+. c #8D7D04",
"@. c #897B07",
"#. c #927E03",
"$. c #DC7D05",
"%. c #C1651A",
"&. c #E4791E",
"*. c #E8791F",
"=. c #F07E1E",
"-. c #DD7421",
";. c #82474D",
":. c #EC4D52",
">. c #8C8105",
",. c #958403",
"<. c #9B8C05",
"1. c #A48E04",
"2. c #A49305",
"3. c #AD9D01",
"4. c #A89304",
"5. c #B29D02",
"6. c #B5A203",
"7. c #BBA403",
"8. c #BDAC03",
"9. c #C0A702",
"0. c #C3AC02",
"q. c #C8AD04",
"w. c #CBB304",
"e. c #CEBC05",
"r. c #C5B104",
"t. c #D4BB04",
"y. c #D9BD02",
"u. c #D6B906",
"i. c #FB8223",
"p. c #DDC304",
"a. c #E1C602",
"s. c #E4CB03",
"d. c #E9CE03",
"f. c #ECD203",
"g. c #EED808",
"h. c #F4D602",
"j. c #F8D702",
"k. c #F5D903",
"l. c #FDDC02",
"z. c #FCDD08",
"x. c #FCE004",
"c. c #6F7982",
"v. c #797E81",
"b. c #7F8382",
"n. c #848689",
"m. c #858B8D",
"M. c #8B8B8D",
"N. c #818183",
"B. c #898E92",
"V. c #8D9293",
"C. c #949597",
"Z. c #AAACAE",
"A. c #A3A5A6",
"S. c #AEB0AF",
"D. c #AFB2B4",
"F. c #BABBBC",
"G. c #B4B6B7",
"H. c #B7BCC0",
"J. c #BCC0C1",
"K. c #C3C4C6",
"L. c #C3C5C9",
"P. c #C7C8CC",
"I. c #C8C8CA",
"U. c #CBD1CF",
"Y. c #CCD1D4",
"T. c #D2D4D5",
"R. c #D1D5D9",
"E. c #DBDCDD",
"W. c #D5D9DA",
"Q. c #DBDCE0",
"!. c #DDE2E5",
"~. c #E2E6E6",
"^. c #E6E7E9",
"/. c #EAECEE",
"(. c #EAEEF1",
"). c #EBF3F5",
"_. c #F2F4F5",
"`. c #FFFFFF",
"'. c #F3F7F9",
/* pixels */
"`.`.`.`.`.`.`.`.`.`.`.`.`.`.`.`.`.`.`.`.`.`.`.`.`.`.`.`.`.`.`.`.`.`.`.`.`.`.`.`.",
"`.`.`.`.`.`.`.`.`.`.`.`.`.`.`.`.`.`.`.`.`.`.`.`.`.`.`.`.`.`.`.`.`.`.`.`.`.`.`.`.",
"`.`.`.`.`.`.`.`.`.`.`.`.`.`.`.`.`.`.`.`.`.`.`.`.`.`.`.`.`.`.`.`.`.`.`.`.`.`.`.`.",
"`.`.`.`.`.`.`.`.`.`.`.`.`.`.`.`.`.`.`.`.`.`.`.`.`.`.`.`.`.`.`.`.`.`.`.`.`.`.`.`.",
"`.`.`.`.`.`.`.`.`.`.`.`.`.E.S./ P I T ' L.`.`.`.`.`.`.`.`.`.`.`.`.`.`.`.`.`.`.`.",
"`.`.`.`.`.`.`.`.`.`.`.'._ 4 J 5.e.y.q.,.> ~ R.`.`.`.`.`.`.`.`.`.`.`.`.`.`.`.`.`.",
"`.`.`.`.`.`.`.`.`.`.Q.t G k.l.l.l.l.l.z.k.,.4 J.).F.F.`.`.`.`.`.`.`.`.`.`.`.`.`.",
"`.`.`.`.`.`.`.`.`./.y <.l.l.l.l.j.l.l.l.x.k.p.x & ; v.`.`.`.`.`.`.`.`.`.`.`.`.`.",
"`.`.`.`.`.`.`.`.`.^ J j.l.l.l.l.l.l.l.l.l.l.z.l.e.1 R.`.`.`.`.`.`.`.`.`.`.`.`.`.",
"`.`.`.`.`.`.`.`.Y.5 s.k.j.j.k.k.j.j.j.j.j.h.k.k.> m.`.`.`.`.`.`.`.`.`.`.`.`.`.`.",
"`.`.`.`.`.`.`.`._ X @ & p % p * @ @ & & & @ > g.m D.`.`.`.`.`.`.`.`.`.`.`.`.`.`.",
"`.`.`.`.`.`.`.`.E     s  .[  .{ . - 7.8.9.,.& h.2.M.`.`.`.`.`.`.`.`.`.`.`.`.`.`.",
"`.`.`.`.`.`.`.F.o > x u ..| :.;.; q.j.l.l.h.9.j.w.e `.`.`.`.`.`.`.`.`.`.`.`.`.`.",
"`.`.'.E q e r 5 %.= 5.b a } ] ; 0.l.l.l.l.l.l.l.t.$ `.`.`.`.`.`.`.`.`.`.`.`.`.`.",
"`.`.'.9 &.-.*.i.i.A f +.>.$.+.4.l.l.l.l.l.l.z.l.8./ `.`.`.`.`.`.`.`.`.`.`.`.`.`.",
"`.`.`.` o.i.i.i.i.*.X.% r.k.l.z.l.l.l.l.l.l.l.k.G V.`.`.`.`.`.`.`.`.`.`.`.`.`.`.",
"`.`.`.!.T j &.i.i.i.i.A @.l.l.l.l.l.l.l.l.l.l.a.0 !.`.`.`.`.`.`.`.`.`.`.`.`.`.`.",
"`.`.`.`._.v.7 h Z Z d + w.l.l.l.l.l.l.l.l.z.f.v D.`.`.`.`.`.`.`.`.`.`.`.`.`.`.`.",
"`.`.`.`.`.`.(.L.F.Z.M.2 k.x.l.l.l.l.l.l.l.t.M N.'.`.`.`.`.`.`.`.`.`.`.`.`.`.`.`.",
"`.`.`.`.`.`.`.`.`.`.(.q d.l.l.l.l.l.l.l.B X c.'.'.`.`.`.`.`.`.`.`.`.`.`.W.W.`.`.",
"`.`.`.`.`.`.`.`.`.'.( G j.x.l.l.l.l.l.l.S g l f : # Y n.!.`.`.`.`.`.`.D.8 m.`.`.",
"`.`.`.`.`.`.`.`.'._ D k.l.l.l.l.l.l.l.z.z.l.l.x.x.k.0.G : U Z./.`.'.( l c n.`.`.",
"`.`.`.`.`.`.`.`.M.n j.l.l.l.l.l.f.y.t.f.l.l.l.l.l.l.l.l.f.6.c 9 Y P J 0.O v.`.`.",
"`.`.`.`.`.`.`.L.2 d.l.l.l.l.s.H ; > : - n w.k.l.l.l.l.z.k.l.l.s.t.f.w., ; B.`.`.",
"`.`.`.`.`.`.`./ 0.l.l.l.l.s., S d.l.l.d.#.: > +.q.p.a.y.6.,.j.l.k.F - <.z Y.`.`.",
"`.`.`.`.`.`.'.6 z.l.l.z.l.B B k.l.l.l.l.l.f.5.V ; O O O & & k.l.l.O.u.a.I `.`.`.",
"`.`.`.`.`.`.K.c l.l.l.l.k.+ s.l.l.l.l.l.l.x.l.l.l.j.h.k.S G l.l.l.l.l.@.A.`.`.`.",
"`.`.`.`.`.`.U.S l.l.l.z.r.: z.l.l.l.l.l.l.l.l.j.@.c f + X t.l.l.l.l.z.f R.`.`.`.",
"`.`.`.`.`.`.I.S j.x.l.l.w.; x.z.l.l.l.l.l.l.z.l.w.5.0.S S l.l.l.l.l.t.Q `.`.`.`.",
"`.`.`.`.`.`.T.N l.l.l.l.h.+ a.j.l.l.l.l.l.l.l.t.,.O.n & a.l.l.l.l.l.+.V.`.`.`.`.",
"`.`.`.`.`.`._.< z.l.l.l.l.S c h.l.l.l.l.l.l.z.6.n f X 2.l.l.l.l.l.k.6 Y.`.`.`.`.",
"`.`.`.`.`.`.`.t e.l.l.l.l.h.l l a.l.z.l.l.l.l.k.2.& >.l.l.l.z.l.j.2.( `.`.`.`.`.",
"`.`.`.`.`.`.`./.L a.l.l.l.l.j.+.@ l G +.+.J N ; f q.l.z.l.l.l.l.p.3 ~.`.`.`.`.`.",
"`.`.`.`.`.`.`.`.K.K r.l.l.l.l.l.f.3.G N N F <.y.l.l.l.j.z.l.l.s.6 P.`.`.`.`.`.`.",
"`.`.`.`.`.`.`.`.`.~.W B 7.k.z.l.l.j.l.j.l.j.l.l.z.l.l.l.l.s.+.k K.`.`.`.`.`.`.`.",
"`.`.`.`.`.`.`.`.`.`.'.U./ 1 n +.7.w.t.y.t.y.t.t.t.9.2.O.c I N.~.`.`.`.`.`.`.`.`.",
"`.`.`.`.`.`.`.`.`.`.`.`.`.^.G.V.C.R w w w y E ) M.A.Z.F.E.`.`.`.`.`.`.`.`.`.`.`.",
"`.`.`.`.`.`.`.`.`.`.`.`.`.`.`.`.`.`.`.`.`.`.`.`.`.`.`.`.`.`.`.`.`.`.`.`.`.`.`.`.",
"`.`.`.`.`.`.`.`.`.`.`.`.`.`.`.`.`.`.`.`.`.`.`.`.`.`.`.`.`.`.`.`.`.`.`.`.`.`.`.`.",
"`.`.`.`.`.`.`.`.`.`.`.`.`.`.`.`.`.`.`.`.`.`.`.`.`.`.`.`.`.`.`.`.`.`.`.`.`.`.`.`."
};
