/* XPM */
static char *de1cf76dd1db485ed1649596204b8081i2dJk8PYvLPMQ4Ka[] = {
/* columns rows colors chars-per-pixel */
"128 128 4 1 ",
"  c #BFE8EA",
". c #CDEFF0",
"X c #DCF3F4",
"o c #E9F8F9",
/* pixels */
"oooooooooooooooooooooooooooooooooooooooooooooooooooooooooooooooooooooooooooooooooooooooooooooooooooooooooooooooooooooooooooooooo",
"oooooooooooooooooooooooooooooooooooooooooooooooooooooooooooooooooooooooooooooooooooooooooooooooooooooooooooooooooooooooooooooooo",
"oooooooooooooooooooooooooooooooooooooooooooooooooooooooooooooooooooooooooooooooooooooooooooooooooooooooooooooooooooooooooooooooo",
"oooooooooooooooooooooooooooooooooooooooooooooooooooooooooooooooooooooooooooooooooooooooooooooooooooooooooooooooooooooooooooooooo",
"oooooooooooooooooooooooooooooooooooooooooooooooooooooooooooooooooooooooooooooooooooooooooooooooooooooooooooooooooooooooooooooooo",
"oooooooooooooooooooooooooooooooooooooooooooooooooooooooooooooooooooooooooooooooooooooooooooooooooooooooooooooooooooooooooooooooo",
"oooooooooooooooooooooooooooooooooooooooooooooooooooooooooooooooooooooooooooooooooooooooooooooooooooooooooooooooooooooooooooooooo",
"oooooooooooooooooooooooooooooooooooooooooooooooooooooooooooooooooooooooooooooooooooooooooooooooooooooooooooooooooooooooooooooooo",
"XXoooooooooooooooooooooooooooooooooooooooooooooooooooooooooooooooooooooooooooooooooooooooooooooooooooooooooooooooooooooooooooooo",
"XXoooooooooooooooooooooooooooooooooooooooooooooooooooooooooooooooooooooooooooooooooooooooooooooooooooooooooooooooooooooooooooooo",
"XXXXXXooooooooXXoooooooooooooooooooooooooooooooooooooooooooooooooooooooooooooooooooooooooooooooooooooooooooooooooooooooooooooooo",
"XXXXXXooooooooXXoooooooooooooooooooooooooooooooooooooooooooooooooooooooooooooooooooooooooooooooooooooooooooooooooooooooooooooooo",
"XXXXXXXXXXXXXXXXXXooooooooooooooooooooooooXXoooooooooooooooooooooooooooooooooooooooooooooooooooooooooooooooooooooooooooooooooooo",
"XXXXXXXXXXXXXXXXXXooooooooooooooooooooooooXXoooooooooooooooooooooooooooooooooooooooooooooooooooooooooooooooooooooooooooooooooooo",
"XXXXXXXXXXXXXXXXooooooooooooooooooooooooXXooooooooooooooooooooooooooooooooooooooooooooooooooooooooooXXXXXXoooooooooooooooooooooo",
"XXXXXXXXXXXXXXXXooooooooooooooooooooooooXXooooooooooooooooooooooooooooooooooooooooooooooooooooooooooXXXXXXoooooooooooooooooooooo",
"XXXXXXXXXXXXXXXXooooooooooooooooooooooooXXooooooooooooooooooooooooooooooooooooooooooooooooooooooooXXXXXXXXoooooooooooooooooooooo",
"XXXXXXXXXXXXXXXXooooooooooooooooooooooooXXooooooooooooooooooooooooooooooooooooooooooooooooooooooooXXXXXXXXoooooooooooooooooooooo",
"XXXXXXXXXXXXXXXXooooooooooooooooooooooooXXooooooooooooooooooooooooooooooooooooooooooooooooooooooooXXXXXXXXXXoooooooooooooooooooo",
"XXXXXXXXXXXXXXXXooooooooooooooooooooooooXXooooooooooooooooooooooooooooooooooooooooooooooooooooooooXXXXXXXXXXoooooooooooooooooooo",
"XXXXXXXXXXXXXXXXooooooooooooooooooooooooXXooooooooooooooooooooooooooooooooooooXXooooooooooooooooXXXXXXXXXXXXoooooooooooooooooooo",
"XXXXXXXXXXXXXXXXooooooooooooooooooooooooXXooooooooooooooooooooooooooooooooooooXXooooooooooooooooXXXXXXXXXXXXoooooooooooooooooooo",
"XXXXXXXXXXXXXXXXXXooooooooooooooooooooXXXXXXooooooooooooooooooooooooooooooXXXXXXXXXXooooooooXXXXXXXXXXXXXXXXXXoooooooooooooooooo",
"XXXXXXXXXXXXXXXXXXooooooooooooooooooooXXXXXXooooooooooooooooooooooooooooooXXXXXXXXXXooooooooXXXXXXXXXXXXXXXXXXoooooooooooooooooo",
"XXXXXXXXXXXXXXXXXXooooooooooooooooooooXXXXXXooooooooooooooooooooooooooXXXXXXXXXXXXXXXXXXXXXXXXXXXXXXXXXXXXXXXXXXXXoooooooooooooo",
"XXXXXXXXXXXXXXXXXXooooooooooooooooooooXXXXXXooooooooooooooooooooooooooXXXXXXXXXXXXXXXXXXXXXXXXXXXXXXXXXXXXXXXXXXXXoooooooooooooo",
"XXXXXXXXXXXXXXXXXXXXooooooooooooooooXXXXXXXXXXooooooooooooooooooXXXXXXXXXXXXXXXXXXXXXXXXXXXXXXXXXXXXooooooooooXXXXoooooooooooooo",
"XXXXXXXXXXXXXXXXXXXXooooooooooooooooXXXXXXXXXXooooooooooooooooooXXXXXXXXXXXXXXXXXXXXXXXXXXXXXXXXXXXXooooooooooXXXXoooooooooooooo",
"XXXXXXXXXXXXXXXXXXXXXXXXooooooooXXXXXXXXXXXXXXXXXXooooooooooXXXXXXXXXXXXXXXXXXXXXXXXXXXXXXXXXXXXoooooooooooooooooooooooooooooooo",
"XXXXXXXXXXXXXXXXXXXXXXXXooooooooXXXXXXXXXXXXXXXXXXooooooooooXXXXXXXXXXXXXXXXXXXXXXXXXXXXXXXXXXXXoooooooooooooooooooooooooooooooo",
"XXXXXXXXXXXXXXXXXXXXXXXXXXXXXXXXXXXXXXXXXXXXXXXXXXXXXXXXXXXXXXXXXXXXXXXXXXXXooooooooooooXXXXXXoooooooooooooooooooooooooooooooooo",
"XXXXXXXXXXXXXXXXXXXXXXXXXXXXXXXXXXXXXXXXXXXXXXXXXXXXXXXXXXXXXXXXXXXXXXXXXXXXooooooooooooXXXXXXoooooooooooooooooooooooooooooooooo",
"XXXXXXXXXXXXXXXXXXXXXXXXXXXXXXXXXXXXXXXXXXXXXXXXXXXXXXXXXXXXXXXXXXXXXXXXXXooooooooooooooooXXoooooooooooooooooooooooooooooooooooo",
"XXXXXXXXXXXXXXXXXXXXXXXXXXXXXXXXXXXXXXXXXXXXXXXXXXXXXXXXXXXXXXXXXXXXXXXXXXooooooooooooooooXXoooooooooooooooooooooooooooooooooooo",
"XXXXXXXXXXXXXXXX..XXXXXXXXXXXXXXXXXXXXXXXXXXXXXXXXXXXXXXXXXXXXXXXXXXoooooooooooooooooooooooooooooooooooooooooooooooooooooooooooo",
"XXXXXXXXXXXXXXXX..XXXXXXXXXXXXXXXXXXXXXXXXXXXXXXXXXXXXXXXXXXXXXXXXXXoooooooooooooooooooooooooooooooooooooooooooooooooooooooooooo",
"....XXXXXXXXXX........XXXXXXXXXXXXXXXXXXXXXXXXXXXXXXXXooooXXXXXXoooooooooooooooooooooooooooooooooooooooooooooooooooooooooooooooo",
"....XXXXXXXXXX........XXXXXXXXXXXXXXXXXXXXXXXXXXXXXXXXooooXXXXXXoooooooooooooooooooooooooooooooooooooooooooooooooooooooooooooooo",
"......XXXXXX................XXXX..................XXooooooooXXoooooooooooooooooooooooooooooooooooooooooooooooooooooooooooooooooo",
"......XXXXXX................XXXX..................XXooooooooXXoooooooooooooooooooooooooooooooooooooooooooooooooooooooooooooooooo",
"..XXXXXXXXXX..........XXXXXX......................oooooooooooooooooooooooooooooooooooooooooooooooooooooooooooooooooooooooooooooo",
"..XXXXXXXXXX..........XXXXXX......................oooooooooooooooooooooooooooooooooooooooooooooooooooooooooooooooooooooooooooooo",
"XXXXXXXXXXXXXX..XXXXXXXXXXXXXX..............XXXXXXoooooooooooooooooooooooooooooooooooooooooooooooooooooooooooooooooooooooooooooo",
"XXXXXXXXXXXXXX..XXXXXXXXXXXXXX..............XXXXXXoooooooooooooooooooooooooooooooooooooooooooooooooooooooooooooooooooooooooooooo",
"XXXXXXXXXXXXXXXXXXXXXXXXXXXXXXXX....XXXX..oooooooooooooooooooooooooooooooooooooooooooooooooooooooooooooooooooooooooooooooooooooo",
"XXXXXXXXXXXXXXXXXXXXXXXXXXXXXXXX....XXXX..oooooooooooooooooooooooooooooooooooooooooooooooooooooooooooooooooooooooooooooooooooooo",
"ooooooooXXXXXXXXXXXXXXXXXXXXXXXXooooXXXXoooooooooooooooooooooooooooooooooooooooooooooooooooooooooooooooooooooooooooooooooooooooo",
"ooooooooXXXXXXXXXXXXXXXXXXXXXXXXooooXXXXoooooooooooooooooooooooooooooooooooooooooooooooooooooooooooooooooooooooooooooooooooooooo",
"ooooooooooooXXXXXXXXooooXXXXXXoooooooooooooooooooooooooooooooooooooooooooooooooooooooooooooooooooooooooooooooooooooooooooooooooo",
"ooooooooooooXXXXXXXXooooXXXXXXoooooooooooooooooooooooooooooooooooooooooooooooooooooooooooooooooooooooooooooooooooooooooooooooooo",
"oooooooooooooooooooooooooooooooooooooooooooooooooooooooooooooooooooooooooooooooooooooooooooooooooooooooooooooooooooooooooooooooo",
"oooooooooooooooooooooooooooooooooooooooooooooooooooooooooooooooooooooooooooooooooooooooooooooooooooooooooooooooooooooooooooooooo",
"oooooooooooooooooooooooooooooooooooooooooooooooooooooooooooooooooooooooooooooooooooooooooooooooooooooooooooooooooooooooooooooooo",
"oooooooooooooooooooooooooooooooooooooooooooooooooooooooooooooooooooooooooooooooooooooooooooooooooooooooooooooooooooooooooooooooo",
"oooooooooooooooooooooooooooooooooooooooooooooooooooooooooooooooooooooooooooooooooooooooooooooooooooooooooooooooooooooooooooooooo",
"oooooooooooooooooooooooooooooooooooooooooooooooooooooooooooooooooooooooooooooooooooooooooooooooooooooooooooooooooooooooooooooooo",
"oooooooooooooooooooooooooooooooooooooooooooooooooooooooooooooooooooooooooooooooooooooooooooooooooooooooooooooooooooooooooooooooo",
"oooooooooooooooooooooooooooooooooooooooooooooooooooooooooooooooooooooooooooooooooooooooooooooooooooooooooooooooooooooooooooooooo",
"oooooooooooooooooooooooooooooooooooooooooooooooooooooooooooooooooooooooooooooooooooooooooooooooooooooooooooooooooooooooooooooooo",
"oooooooooooooooooooooooooooooooooooooooooooooooooooooooooooooooooooooooooooooooooooooooooooooooooooooooooooooooooooooooooooooooo",
"ooooooooooooooooooooooooooooooooooooooooooooooooooooooooooooooooooooooooooooooooooooooooooooooooooooXXoooooooooooooooooooooooooo",
"ooooooooooooooooooooooooooooooooooooooooooooooooooooooooooooooooooooooooooooooooooooooooooooooooooooXXoooooooooooooooooooooooooo",
"ooooooooooooooooooooooooooooooooooooooooooooooooooooooooooooooooooooooooooooooooooooooooooooooooooooXXXXXXXXooooooXXoooooooooooo",
"ooooooooooooooooooooooooooooooooooooooooooooooooooooooooooooooooooooooooooooooooooooooooooooooooooooXXXXXXXXooooooXXoooooooooooo",
"ooooooooooooooooooooooooooooooooooooooooooooooooooooooooooooooooooooooooooooooooooooooooooooooooooXXXXXXXXXXXXXXXXXXXXooooooXXXX",
"ooooooooooooooooooooooooooooooooooooooooooooooooooooooooooooooooooooooooooooooooooooooooooooooooooXXXXXXXXXXXXXXXXXXXXooooooXXXX",
"ooooooXXooooXXooooooooooooooooooooooooooooooooooooooooooooooooooooooooooooooooooooooooooooooooooXXXXXXXXXXXXXXXXXXXXXXXXXXXXXXXX",
"ooooooXXooooXXooooooooooooooooooooooooooooooooooooooooooooooooooooooooooooooooooooooooooooooooooXXXXXXXXXXXXXXXXXXXXXXXXXXXXXXXX",
"ooXXXXXXXXXXXXXXooooooooooooooooooooooooooooooXXXXooooooooooooooooooooooooooooooXXooooooooXXXXXXXXXXXXXXXXXXXXXXXXXXXXXXXXXXXXXX",
"ooXXXXXXXXXXXXXXooooooooooooooooooooooooooooooXXXXooooooooooooooooooooooooooooooXXooooooooXXXXXXXXXXXXXXXXXXXXXXXXXXXXXXXXXXXXXX",
"XXXXXXXXXXXXXXXXXXXXXXXXXXooooooooooooooooooXXXXXXXXooooooooooooooooooooooooooXXXXXXooooXXXXXXXXXXXXXXXXXXXXXXXXXXXXXXXXXXXXXXXX",
"XXXXXXXXXXXXXXXXXXXXXXXXXXooooooooooooooooooXXXXXXXXooooooooooooooooooooooooooXXXXXXooooXXXXXXXXXXXXXXXXXXXXXXXXXXXXXXXXXXXXXXXX",
"XXXXXXXXXXXXXXXXXXXXXXXXXXXXXXXXXXooooooXXXXXXXXXXXXXXooooooooooooooooooXXXXXXXXXXXXXXXXXXXXXXXXXXXXXXXXXXXXXXXXXXXXXXXXXXXXXXXX",
"XXXXXXXXXXXXXXXXXXXXXXXXXXXXXXXXXXooooooXXXXXXXXXXXXXXooooooooooooooooooXXXXXXXXXXXXXXXXXXXXXXXXXXXXXXXXXXXXXXXXXXXXXXXXXXXXXXXX",
"XXXXXXXXXXXXXXXXXXXXXXXXXXXXXXXXXXXXXXXXXXXXXXXXXXXXXXXXXXooooooooooooXXXXXXXXXXXXXXXXXXXXXXXXXXXXXXXXXXXXXXXXXXXXXXXXXXXXXXXX..",
"XXXXXXXXXXXXXXXXXXXXXXXXXXXXXXXXXXXXXXXXXXXXXXXXXXXXXXXXXXooooooooooooXXXXXXXXXXXXXXXXXXXXXXXXXXXXXXXXXXXXXXXXXXXXXXXXXXXXXXXX..",
"XXXXXXXXXXXXXXXXXXXXXXXXXXXXXXXXXXXXXXXXXXXXXXXXXXXXXXXXXXXXXXXXXXXXXXXXXXXXXXXXXXXXXXXXXXXXXXXXXXXXXXXXXXXXXXXXXXXXXXXXXXXX....",
"XXXXXXXXXXXXXXXXXXXXXXXXXXXXXXXXXXXXXXXXXXXXXXXXXXXXXXXXXXXXXXXXXXXXXXXXXXXXXXXXXXXXXXXXXXXXXXXXXXXXXXXXXXXXXXXXXXXXXXXXXXXX....",
"XXXXXXXXXXXXXXXXXXXXXXXXXXXXXXXXXXXXXXXXXXXXXXXXXXXXXXXXXXXXXXXXXXXXXXXXXXXXXXXXXXXXXXXXXXXXXXXXXXXXXXXXXXXXXXXXXXXXXXXXXXXX....",
"XXXXXXXXXXXXXXXXXXXXXXXXXXXXXXXXXXXXXXXXXXXXXXXXXXXXXXXXXXXXXXXXXXXXXXXXXXXXXXXXXXXXXXXXXXXXXXXXXXXXXXXXXXXXXXXXXXXXXXXXXXXX....",
"XXXXXXXXXXXXXXXXXXXXXXXXXXXXXXXXXXXXXXXXXXXXXXXXXXXXXXXXXXXXXXXXXXXXXXXXXXXXXXXXXXXXXXXXXXXXXXXXXXXXXXXXXXXXXXXXXXXX............",
"XXXXXXXXXXXXXXXXXXXXXXXXXXXXXXXXXXXXXXXXXXXXXXXXXXXXXXXXXXXXXXXXXXXXXXXXXXXXXXXXXXXXXXXXXXXXXXXXXXXXXXXXXXXXXXXXXXXX............",
"XXXXXXXXXXXXXXXXXXXXXXXXXXXXXXXXXXXXXXXXXXXXXXXXXXXXXXXXXXXXXXXXXXXXXXXXXXXXXXXXXXXXXXXXXXXXXXXXXXXXXXXXXXXXXXXXXXXX............",
"XXXXXXXXXXXXXXXXXXXXXXXXXXXXXXXXXXXXXXXXXXXXXXXXXXXXXXXXXXXXXXXXXXXXXXXXXXXXXXXXXXXXXXXXXXXXXXXXXXXXXXXXXXXXXXXXXXXX............",
"XXXXXXXXXXXXXXXXXXXXXXXXXXXXXXXXXXXXXXXXXXXXXXXXXXXXXXXXXXXXXXXXXXXXXXXXXXXXXXXXXXXXXXXXXXXX....XXXX..XXXXXXXXXXXX..............",
"XXXXXXXXXXXXXXXXXXXXXXXXXXXXXXXXXXXXXXXXXXXXXXXXXXXXXXXXXXXXXXXXXXXXXXXXXXXXXXXXXXXXXXXXXXXX....XXXX..XXXXXXXXXXXX..............",
"XXXXXXXXXXXXXXXXXXXXXXXXXXXXXXXXXXXXXXXXXXXXXXXXXXXXXXXXXXXXXXXXXXXXXXXXXXXXXXXXXXXXXXXXXXXX..............XXXXXX................",
"XXXXXXXXXXXXXXXXXXXXXXXXXXXXXXXXXXXXXXXXXXXXXXXXXXXXXXXXXXXXXXXXXXXXXXXXXXXXXXXXXXXXXXXXXXXX..............XXXXXX................",
"XXXXXXXXXXXXXXXXXXXXXXXXXXXXXXXXXXXXXXXXXXXXXXXXXXXXXXXXXXXXXXXXXXXXXXXXXXXXXXXX..XXXXXXXX........................      ........",
"XXXXXXXXXXXXXXXXXXXXXXXXXXXXXXXXXXXXXXXXXXXXXXXXXXXXXXXXXXXXXXXXXXXXXXXXXXXXXXXX..XXXXXXXX........................      ........",
"XXXXXXXXXXXXXXXXXXXXXXXXXXXXXXXXXXXXXXXXXXXXXXXXXXXXXXXXXXXXXXXXXXXXXXXXXXXX........XXXX................    ....          ......",
"XXXXXXXXXXXXXXXXXXXXXXXXXXXXXXXXXXXXXXXXXXXXXXXXXXXXXXXXXXXXXXXXXXXXXXXXXXXX........XXXX................    ....          ......",
"..XXXXXXXXXXXXXXXXXXXX......XXXXXXXXXXXXXXXXXXXXXXXXXXXXXX....XXXX....................................                      ..  ",
"..XXXXXXXXXXXXXXXXXXXX......XXXXXXXXXXXXXXXXXXXXXXXXXXXXXX....XXXX....................................                      ..  ",
"..........XXXXXXXXXX..........XXXXXXXXXXXXXXXXXXXXXXXXXX........................................  ..                        ..  ",
"..........XXXXXXXXXX..........XXXXXXXXXXXXXXXXXXXXXXXXXX........................................  ..                        ..  ",
"............XXXX....................XXXXXXXXXXXXXX................................................                        ......",
"............XXXX....................XXXXXXXXXXXXXX................................................                        ......",
"........................................XXXXXX....................................................            ....      ........",
"........................................XXXXXX....................................................            ....      ........",
"..................................................................................................            ..................",
"..................................................................................................            ..................",
"....................................................................................................        ................XXXX",
"....................................................................................................        ................XXXX",
"....................................................................          ........................        ............XXXXXX",
"....................................................................          ........................        ............XXXXXX",
"............................................................                    ........................................XXXXXXXX",
"............................................................                    ........................................XXXXXXXX",
"    ........................................................                      ....................................XXXXXXXXXX",
"    ........................................................                      ....................................XXXXXXXXXX",
"            ................................      ........                      ......................................XXXXXXXXXX",
"            ................................      ........                      ......................................XXXXXXXXXX",
"              ................  ..........          ................    ....    ........................................XXXXXXXX",
"              ................  ..........          ................    ....    ........................................XXXXXXXX",
"                ............          ..          ........................................................................XXXX..",
"                ............          ..          ........................................................................XXXX..",
"                    ......              ......  ................................................................................",
"                    ......              ......  ................................................................................",
"                                  ..............................................................................................",
"                                  ..............................................................................................",
"              ........  ....    ..........................................................  ....................................",
"              ........  ....    ..........................................................  ....................................",
"            ..............................................................................    ..................................",
"            ..............................................................................    ..................................",
"    ......    ..........................................................................                ........................",
"    ......    ..........................................................................                ........................",
"  ......        ....          ............................  ..........        ........                    ......................",
"  ......        ....          ............................  ..........        ........                    ......................"
};
