/* XPM */
static char *_91e82fe35a44e56be736ed73cb742ddN3AAcs2rh15yYy3Y[] = {
/* columns rows colors chars-per-pixel */
"40 40 156 2 ",
"   c #773D3F",
".  c #7E3E3C",
"X  c #7D443E",
"o  c #7B533E",
"O  c #562D4F",
"+  c #592F4E",
"@  c #5C324D",
"#  c #572D50",
"$  c #5A3254",
"%  c #5F3759",
"&  c #6C3544",
"*  c #623C47",
"=  c #6D3B44",
"-  c #653549",
";  c #663B48",
":  c #753C41",
">  c #684048",
",  c #784042",
"<  c #744A43",
"1  c #7A4853",
"2  c #674261",
"3  c #694464",
"4  c #6E4B69",
"5  c #714F6A",
"6  c #7B5A75",
"7  c #813D3A",
"8  c #B7531F",
"9  c #BA551F",
"0  c #BC591D",
"q  c #BD661F",
"w  c #9B4A2E",
"e  c #9D542E",
"r  c #8D4435",
"t  c #8E4D34",
"y  c #84423A",
"u  c #864A3A",
"i  c #924633",
"p  c #9C4E38",
"a  c #964D35",
"s  c #955233",
"d  c #9B5331",
"f  c #9A5B36",
"g  c #AB4F26",
"h  c #AA4F29",
"j  c #A54C2A",
"k  c #AD5025",
"l  c #AF5E27",
"z  c #A2572D",
"x  c #A4592B",
"c  c #AB5C2A",
"v  c #B15324",
"b  c #BA5520",
"n  c #9C7B2E",
"m  c #916E36",
"M  c #8A6838",
"N  c #AD6626",
"B  c #AE6B27",
"V  c #B46223",
"C  c #B96422",
"Z  c #B16824",
"A  c #B6672E",
"S  c #BD6B21",
"D  c #AB7529",
"F  c #AA7E2B",
"G  c #A4742A",
"H  c #A6613A",
"J  c #C35C1C",
"K  c #DC770F",
"L  c #CC6317",
"P  c #C2671E",
"I  c #CA611A",
"U  c #C46A1C",
"Y  c #CB6E19",
"T  c #D16616",
"R  c #D86C12",
"E  c #D16618",
"W  c #CD7217",
"Q  c #D37214",
"!  c #DC7511",
"~  c #DE7911",
"^  c #E1740D",
"/  c #E57C0E",
"(  c #EB7D0A",
")  c #E57A10",
"_  c #874F4E",
"`  c #8E5A5C",
"'  c #986351",
"]  c #8D5F61",
"[  c #976764",
"{  c #986760",
"}  c #82657D",
"|  c #AE8D26",
" . c #AA8C2A",
".. c #BD9B20",
"X. c #CF8218",
"o. c #EE8107",
"O. c #EE8108",
"+. c #F58405",
"@. c #FA8604",
"#. c #F78D05",
"$. c #FF8A00",
"%. c #F08209",
"&. c #FF9301",
"*. c #FF9B01",
"=. c #D0B617",
"-. c #C5A91A",
";. c #FFA300",
":. c #FEAC01",
">. c #F4B306",
",. c #FFB201",
"<. c #FFBA02",
"1. c #DCC30F",
"2. c #E6CE0C",
"3. c #FEC201",
"4. c #FFCA03",
"5. c #E9D20A",
"6. c #FFD301",
"7. c #FFDC01",
"8. c #FEE101",
"9. c #FFE900",
"0. c #8A6C84",
"q. c #8F738A",
"w. c #92768C",
"e. c #9B7B88",
"r. c #A17E85",
"t. c #9B8294",
"y. c #9F8A9D",
"u. c #9B8498",
"i. c #A68A96",
"p. c #A0899D",
"a. c #AF9194",
"s. c #AA94A4",
"d. c #AF9DAB",
"f. c #B197A0",
"g. c #B39CA7",
"h. c #B7A7B4",
"j. c #B8A6B4",
"k. c #B8A8B5",
"l. c #C3B6C0",
"z. c #C7BAC4",
"x. c #C9BDC7",
"c. c #C9BDC9",
"v. c #CDC1CB",
"b. c #D1C6CE",
"n. c #D2C6D1",
"m. c #D5CBD3",
"M. c #DFD5DC",
"N. c #E3DCE2",
"B. c #E7E1E3",
"V. c #E8E2E6",
"C. c #ECE7EB",
"Z. c #EDE9EC",
"A. c #F0EEF1",
"S. c #F4F3F5",
"D. c #F9F9F7",
"F. c #FFFFFF",
/* pixels */
"F.F.F.F.F.F.F.F.F.F.F.F.F.F.F.F.F.A.3 O $ N.F.F.F.F.F.F.F.F.F.F.F.F.F.F.F.F.F.F.",
"F.F.F.F.F.F.F.F.F.F.F.F.F.F.F.F.m.s.H x x a.x.F.F.F.F.F.F.F.F.F.F.F.F.F.F.F.F.F.",
"F.F.F.F.F.F.F.F.F.F.F.F.F.F.F.F.s.; O.$.$.& w.F.F.F.F.F.F.F.F.F.F.F.F.F.F.F.F.F.",
"F.F.F.F.F.F.F.F.F.F.F.F.F.F.B.4 H #.6.<.$.J a % % 0.F.F.F.F.F.F.F.F.F.F.F.F.F.F.",
"F.F.F.F.F.F.F.F.F.F.F.F.F.m.g.f X.<.8.3.$.R b X 7 ` k.Z.F.F.F.F.F.F.F.F.F.F.F.F.",
"F.F.F.F.F.F.F.F.F.F.F.F.F.u.: O.<.9.9.3.$.$.( b 9 w # m.F.F.F.F.F.F.F.F.F.F.F.F.",
"F.F.F.F.F.F.F.F.F.F.w.3 3 A O.$.<.7.*.&.$.$.$.+.J 9 v 1 2 2 n.F.F.F.F.F.F.F.F.F.",
"F.F.F.F.F.F.F.F.S.v.{ u u Y $.;.<.4.&.$.$.$.$.$.R I 9 7 : : f.m.F.F.F.F.F.F.F.F.",
"F.F.F.F.F.F.F.F.n.O W $.$.$.&.8.<.$.$.$.$.$.$.$.$.( 9 9 9 9 : 5 F.F.F.F.F.F.F.F.",
"F.F.F.F.F.F.F.u.{ Q +.&.6.6.6.9.<.$.$.Y X ( $.$.$.@.( ( ^ 9 h p } l.F.F.F.F.F.F.",
"F.F.F.F.F.S.M.] d $.*.:.9.7.7.6.:.$.) B o W O.$.$.$.$.$.+.J J g & i.N.D.F.F.F.F.",
"F.F.F.F.F.z.O ! $.$.6.9.9.,.$.$.$.o.* n 9.< t $.$.$.$.$.$.$.T 9 9 y 2 C.F.F.F.F.",
"F.F.F.F.F.x.O K $.$.6.7.:.&.$.$.$.@.Y B m S ! $.$.$.$.$.$.$.T 9 9 y 2 Z.F.F.F.F.",
"F.F.F.F.F.c.O ! $.$.4.4.$.$.$.$.$.$.$.q - / $.$.$.$.$.$.$.$.E 9 9 7 3 C.F.F.F.F.",
"F.F.F.F.F.x.O ! $.$.$.$.$.$.$.$.$.$.$.$.$.$.$.$.$.$.$.$.$.$.E 9 9 y 2 C.F.F.F.F.",
"F.F.F.F.F.x.O ! $.$.$.$.$.$.$.$.$.@.l z z z P $.$.$.$.$.$.$.T 9 9 y 2 C.F.F.F.F.",
"F.F.F.F.F.x.+ ! $.$.$.$.$.$.$.$.$.O.= @ O O t $.$.$.$.$.$.#.L 9 9 7 2 C.F.F.F.F.",
"F.F.F.F.F.v.O ! $.$.y : $.$.$.$.x * 5.9.9.*.U + ~ $.$.$.! O w 9 9 7 2 Z.F.F.F.F.",
"F.F.F.F.F.x.O ! o.c F F c ~ +.V D | >.<.<.&.^ c c P $.P N  .f r 9 r 2 C.F.F.F.F.",
"F.F.F.F.F.x.+ ! Q # =.1.O C ( -  .8.*.$.$.$.$.$., u $.X o 9.M - 9 y 2 C.F.F.F.F.",
"F.F.F.F.F.z.# ! $.+.u X +.$./ *  .8.&.$.$.$.$.$.: u $.@.Q @ w b 9 7 2 C.F.F.F.F.",
"F.F.F.F.F.x.# ! $.$.V V $.$.+.x D ..>.<.,.&./ C z C $.$.o.e l b b r 2 C.F.F.F.F.",
"F.F.F.F.F.z.O ! $.$.$.$.$.$.$.$.c * 5.9.9.*.U O ~ $.$.$.$.$.T 9 9 7 2 C.F.F.F.F.",
"F.F.F.F.F.v.+ ! $.$.$.$.$.$.$.$.+./ X > * ; a ( $.$.$.$.$.$.L 9 9 7 2 C.F.F.F.F.",
"F.F.F.F.F.x.# ! $.$.$.$.$.$.$.$.$.+.z s s s C $.$.$.$.$.$.$.T b 9 7 3 Z.F.F.F.F.",
"F.F.F.F.F.z.O ! $.$.$.$.$.$.$.$.$.$.$.$.$.$.$.$.$.$.$.$.$.$.T 9 9 r 2 Z.F.F.F.F.",
"F.F.F.F.F.x.O ! ;.7.;.$.$.$.$.$.$.$.$.$.$.$.$.$.$.$.$.$.$.$.T 9 9 7 2 C.F.F.F.F.",
"F.F.F.F.F.v.O ! *.6.:.*.$.$.$.$.$.$.$.O.! @.$.$.$.$.$.$.$.$.T 9 9 7 2 Z.F.F.F.F.",
"F.F.F.F.F.x.O K $.$.4.6.$.$.$.$.$.$.$.C + / $.$.$.$.$.$.$.$.T b 9 7 2 Z.F.F.F.F.",
"F.F.F.F.F.C.z.' c $.6.6.$.$.$.$.$.+.e G -.f V $.$.$.$.$.+.T J v   r.c.D.F.F.F.F.",
"F.F.F.F.F.F.F.6 X $.4.6.&.$.$.$.$.+.X n 2.X e $.$.$.$.+.( 9 b h O d.F.F.F.F.F.F.",
"F.F.F.F.F.F.F.6 u $.$.*.9.,.$.$.$.$.$.C $ / $.$.$.$.$.L b 9 9 g O d.F.F.F.F.F.F.",
"F.F.F.F.F.F.F.l.a.e / &.,.<.<.$.$.$.$.) C +.$.$.$.( R J 9 9 i _ j.M.F.F.F.F.F.F.",
"F.F.F.F.F.F.F.F.m.$ W @.$.3.7.&.$.$.$.$.$.$.$.$.@.( 9 J 8 8 : 5 F.F.F.F.F.F.F.F.",
"F.F.F.F.F.F.F.F.F.F.} , $.3.9.9.<.$.$.$.$.$.$.$.J 9 9 9 j O # 5 F.F.F.F.F.F.F.F.",
"F.F.F.F.F.F.F.F.F.F.} , $.:.<.<.;.$.$.$.$.K R ^ J 9 9 i . $ w.j.F.F.F.F.F.F.F.F.",
"F.F.F.F.F.F.F.F.F.F.}   $.$.$.$.$.$.$.$.$.J 9 9 J 9 b & $ + c.F.F.F.F.F.F.F.F.F.",
"F.F.F.F.F.F.F.F.F.F.D.D.D.i.+ + r 9 0 0 0 9 9 9 & + + b.D.D.D.F.F.F.F.F.F.F.F.F.",
"F.F.F.F.F.F.F.F.F.F.F.F.F.z.p.p.[ r r r r r r r e.p.p.N.F.F.F.F.F.F.F.F.F.F.F.F.",
"F.F.F.F.F.F.F.F.F.F.F.F.F.F.F.F.s.O O O O O O O M.F.F.F.F.F.F.F.F.F.F.F.F.F.F.F."
};
