/* XPM */
static char *da4c0ef3c8184a2a931809962aecee5fKIAykMEpCbCLD0OQ[] = {
/* columns rows colors chars-per-pixel */
"40 40 153 2 ",
"   c #020202",
".  c #0B0604",
"X  c #08070C",
"o  c #180A07",
"O  c #110D0C",
"+  c #1B180F",
"@  c #15120B",
"#  c #1A1710",
"$  c #1C1C1C",
"%  c gray7",
"&  c #2E1904",
"*  c #221F16",
"=  c #3E1815",
"-  c #3E2204",
";  c #373121",
":  c #3D3B24",
">  c #343434",
",  c gray22",
"<  c #272928",
"1  c #4B1D18",
"2  c #402205",
"3  c #5E231D",
"4  c #60241A",
"5  c #5F2221",
"6  c #453F29",
"7  c #6C2A23",
"8  c #7B2E24",
"9  c #752C23",
"0  c #633526",
"q  c #50462B",
"w  c #64413B",
"e  c #6D5E3D",
"r  c #6E633E",
"t  c gray27",
"y  c gray29",
"u  c #504E4F",
"i  c #555655",
"p  c #595758",
"a  c #664647",
"s  c #7D7148",
"d  c #787250",
"f  c #615F60",
"g  c #5F6160",
"h  c #616161",
"j  c #737373",
"k  c #7A797A",
"l  c #803025",
"z  c #883429",
"x  c #9C3B2B",
"c  c #834A05",
"v  c #9F5A0D",
"b  c #824F10",
"n  c #B25B18",
"m  c #A86107",
"M  c #AD6008",
"N  c #845E31",
"B  c #A3402D",
"V  c #B84437",
"C  c #BF4A38",
"Z  c #D5760C",
"A  c #E67517",
"S  c #EA7A15",
"D  c #E77619",
"F  c #E9771A",
"G  c #EC7C18",
"H  c #D75D2C",
"J  c #C44C36",
"K  c #CB4F37",
"L  c #C74C3A",
"P  c #CA4C3A",
"I  c #CB513D",
"U  c #DA6D35",
"Y  c #E26E21",
"T  c #80774C",
"R  c #847D4F",
"E  c #867A59",
"W  c #CD4F41",
"Q  c #CF5F47",
"!  c #D15D44",
"~  c #CF6145",
"^  c #D06245",
"/  c #D6744F",
"(  c #D8764F",
")  c #D77351",
"_  c #D87252",
"`  c #EE810E",
"'  c #F28607",
"]  c #F3860B",
"[  c #F3890C",
"{  c #EE8011",
"}  c #F38B12",
"|  c #F68D18",
" . c #F6931C",
".. c #F38E22",
"X. c #F39523",
"o. c #8F8154",
"O. c #988C5A",
"+. c #81817F",
"@. c #AA9A62",
"#. c #A69561",
"$. c #B5A56A",
"%. c #B5A467",
"&. c #DC8159",
"*. c #F3AB56",
"=. c #E7B055",
"-. c #F7B956",
";. c #F8BA57",
":. c #F9BB58",
">. c #D69261",
",. c #E08D61",
"<. c #E39765",
"1. c #C9B775",
"2. c #CFBC77",
"3. c #CFBD79",
"4. c #C5B371",
"5. c #D0BE76",
"6. c #D0BD79",
"7. c #EDB578",
"8. c #D9C37C",
"9. c #FAC56B",
"0. c #FACB75",
"q. c #F2C27D",
"w. c #FCCF79",
"e. c #828283",
"r. c gray58",
"t. c #9D9E9E",
"y. c #A9A9A7",
"u. c #A2A3A3",
"i. c #B9B9B7",
"p. c #B7B7B7",
"a. c #DFCB84",
"s. c #E1C981",
"d. c #F2C581",
"f. c #EBD387",
"g. c #EDD68A",
"h. c #F7D387",
"j. c #F9D486",
"k. c #FCD884",
"l. c #F4D58B",
"z. c #F9D58A",
"x. c #F4DA8C",
"c. c #FCDE8E",
"v. c #FBDE90",
"b. c #F6DC91",
"n. c #FCE18E",
"m. c #FDE191",
"M. c #DED4B0",
"N. c #FAE8A6",
"B. c #C3C3C3",
"V. c #FDECC0",
"C. c #F5F5F5",
"Z. c #F8F7F5",
"A. c #FFFFFF",
/* pixels */
"A.A.A.A.A.A.A.A.A.A.A.A.A.A.A.A.A.A.A.A.A.A.A.A.A.A.A.A.A.A.A.A.A.A.A.A.A.A.A.A.",
"A.A.A.A.A.A.A.A.A.A.A.A.A.A.A.A.A.A.A.A.A.A.A.A.A.A.A.A.A.A.A.A.A.A.A.A.A.A.A.A.",
"A.A.A.A.A.A.A.A.A.A.A.A.A.A.A.A.A.A.A.A.A.A.A.A.A.A.A.A.A.A.A.A.A.A.A.A.A.A.A.A.",
"A.A.A.A.A.A.A.u.e.e.e.e.e.e.e.+.e.e.e.e.e.e.e.e.e.e.e.e.e.e.e.Z.A.A.A.A.A.A.A.A.",
"A.A.A.A.A.Z.A.t X   .                                       X Z.A.A.A.A.A.A.A.A.",
"A.A.A.A.A.t.k E e.N c c c c c c c c c c c c c c c c c c b R T j e.A.A.A.A.A.A.A.",
"A.A.A.A.A.i X p.Z.*.] ' ] ' ] ] ' ] ] ] ' ] ' [ ` ' ' '  .m.l.  $ Z.A.A.A.A.A.A.",
"A.A.A.t.g e.r.M.V.0.:.-.:.:.:.:.-.-.-.-.-.-.-.-.:.:.;.;.=.r r o.R f k A.A.A.A.A.",
"A.A.A.g   y.A.N.b.v.v.m.m.v.n.c.c.c.c.c.v.n.n.m.n.n.m.n.s.  O n.8.. < A.A.A.A.A.",
"A.A.A.g   p +.E T d T T T s T T T T T T T T T s T T T s s 7 7 <.>.s d k r.A.A.A.",
"A.A.A.g                                                 o P J P Q c.3.  > A.A.A.",
"A.A.A.i.r.>   3 8 8 8 8 8 8 8 8 8 8 8 8 8 8 8 8 8 8 8 8 9 5 4 P Q c.3.  > A.A.A.",
"A.A.A.A.A.i . x L P P P P L P L P L L L L L L P L L L L V   . W Q k.3.  > A.A.A.",
"A.A.A.A.A.B.u.w 1 B P P P P P P P L K K I P L K P P P P L l l 1 0 c.3.  > A.A.A.",
"A.A.A.A.A.A.Z.t   z P P P P P P P P P P P P I P P P P P P P J   * b.2.  > A.A.A.",
"A.A.A.A.A.A.A.B.p.a = n A F A A D D D D D A A D D D A A F F A m v q :   > A.A.A.",
"A.A.A.A.A.A.A.A.A.u   M ' ' ] ' ] ' ' [ ' ' ] ] [ ] ' [ ' ' ] ] Z       > A.A.A.",
"A.A.A.e.> , , , , %   & - 2 2 2 2 2 2 2 - - 2 2 2 2 - - - - 2 2 -       > A.A.A.",
"A.A.A.g             .                                                   > A.A.A.",
"A.A.A.g . s $.$.$.$.$.$.$.$.$.$.$.$.$.$.$.$.$.$.%.. @ @.%.%.$.$.$.%.O.  > A.A.A.",
"A.A.A.f   @.v.v.v.m.m.m.v.m.m.v.c.m.v.v.m.m.n.v.m.. # l.m.v.m.m.m.m.8.  > A.A.A.",
"A.A.A.g   #.n.,.) ) / q.n.e 6 s.c.&./ / ) _ ( z.x.  # x.l._ ) ) ( c.3.  > A.A.A.",
"A.A.A.p   @.c._ P P L 7.n.;   8.c.! P L P P I j.x.. # g.h.P P P Q c.2.  > A.A.A.",
"A.A.A.h   @.v._ P Y S 9.v.3.4.x.c.Q P D G G G k.x.. # l.h.P P P Q c.3.  > A.A.A.",
"A.A.A.h   @.c._ P A ' 9.m.m.m.m.c.^ K S ] ] [ k.n.  + g.h.P L P ! c.3.  > A.A.A.",
"A.A.A.h   @.v._ P A ' U ~ d.n._ ^ P K ] ] [ ] k.n.. + g.h.P P P ~ x.3.  > A.A.A.",
"A.A.A.h   @.v._ P A ' H I d.n.~ P P K ] [ ] [ k.x.  + x.h.P K L Q c.2.  > A.A.A.",
"A.A.A.p   @.v._ P A ' G ` 0.m...{ { S ] ] ] [ k.x.. + x.h.P K P Q c.3.  > A.A.A.",
"A.A.A.f   @.c._ P A ' [ ] 0.m. .[ ] [ [ ` [ ] k.v.  # l.h.L P P ! c.2.  > A.A.A.",
"A.A.Z.f   @.c._ P A ' [ ] 0.m. .[ ] ] ] } ' [ k.c.  # l.h.L P P ~ x.2.  > A.A.A.",
"A.A.A.f   @.v._ P A ] [ ] 0.v. .] ] ] ] ] ] ] k.x.  # l.h.L L P Q c.3.  > A.A.A.",
"A.A.A.f   @.v._ P D ] [ ] w.v. .[ [ [ [ ] ] } k.n.. # l.h.L P P Q c.3.  > A.A.A.",
"A.A.A.h   @.b.) W F } } [ w.c.X.[ } [ [ [ } } k.x.. # g.l.L I I ~ c.8.  > A.A.A.",
"A.A.A.g   @.m.x.z.z.k.k.k.c.c.k.k.k.k.k.k.c.k.v.x.. # x.v.h.z.z.z.n.3.  > A.A.A.",
"A.A.A.g   #.x.l.b.x.x.x.x.x.x.x.x.x.x.x.x.x.x.x.g.  # f.l.b.x.x.b.l.1.  > A.A.A.",
"A.A.A.f                                           X                     > A.A.A.",
"A.A.A.j $ $ $ $ $ $ $ $ $ $ $ $ $ $ $ $ $ $ $ $ $ $ $ $ $ $ $ $ $ $ $ $ y A.A.A.",
"A.A.A.Z.C.C.C.C.C.C.C.C.C.C.C.C.C.C.C.C.C.Z.C.C.C.C.C.C.C.C.C.C.C.C.C.C.C.A.A.A.",
"A.A.A.A.A.A.A.A.A.A.A.A.A.A.A.A.A.A.A.A.A.A.A.A.A.A.A.A.A.A.A.A.A.A.A.A.A.A.A.A.",
"A.A.A.A.A.A.A.A.A.A.A.A.A.A.A.A.A.A.A.A.A.A.A.A.A.A.A.A.A.A.A.A.A.A.A.A.A.A.A.A."
};
