/* XPM */
static char *f9b2435af9da42d1eb73705712ae9e51f2apIuwOfWpLRUyu[] = {
/* columns rows colors chars-per-pixel */
"40 40 128 2 ",
"   c #020202",
".  c #090806",
"X  c #0E0E0A",
"o  c #110D0A",
"O  c #1E1A0F",
"+  c #121212",
"@  c #1F1A14",
"#  c #181818",
"$  c #201C11",
"%  c #252116",
"&  c #2A2416",
"*  c #22211F",
"=  c #282419",
"-  c #2F2C1B",
";  c #322C1C",
":  c #39321F",
">  c #1F2120",
",  c #202022",
"<  c #352D22",
"1  c #333132",
"2  c gray24",
"3  c #463F2C",
"4  c #4A422B",
"5  c #534A2E",
"6  c #554E31",
"7  c #5A5134",
"8  c #5E5E5E",
"9  c #756E46",
"0  c #786C46",
"q  c #766D49",
"w  c #7E754A",
"e  c #7C7C7C",
"r  c #EA7B13",
"t  c #D1552F",
"y  c #D65E2C",
"u  c #C74F37",
"i  c #C94C37",
"p  c #C74D3B",
"a  c #CA4C3B",
"s  c #CE5735",
"d  c #CD523E",
"f  c #D25732",
"g  c #DA6427",
"h  c #DE6922",
"j  c #907F52",
"k  c #CC5341",
"l  c #DA7C56",
"z  c #DA7C58",
"x  c #EF8808",
"c  c #F28707",
"v  c #F3860A",
"b  c #F3880A",
"n  c #8F8054",
"m  c #918053",
"M  c #AA9B63",
"N  c #B2A368",
"B  c #BEAA6B",
"V  c #DC8057",
"C  c #F8B34E",
"Z  c #F0A854",
"A  c #F7B350",
"S  c #E39765",
"D  c #E79B61",
"F  c #E6A36C",
"G  c #F2B96A",
"H  c #EBAD74",
"J  c #EDB375",
"K  c #EBB876",
"L  c #F3BB70",
"P  c #F0BF7D",
"I  c #F6C165",
"U  c #FAC364",
"Y  c #F9C26A",
"T  c #F8CF75",
"R  c #F2C47E",
"E  c #F7CD79",
"W  c #FCCF79",
"Q  c #FBD17A",
"!  c #9E9E9E",
"~  c #A2A39F",
"^  c #A2A2A2",
"/  c #A9A9A7",
"(  c #A7A9A8",
")  c #A9A9A9",
"_  c gray71",
"`  c #F3C682",
"'  c #F5CC84",
"]  c #F6D587",
"[  c #FAD583",
"{  c #F7D983",
"}  c #F6D58A",
"|  c #F9D588",
" . c #F7DC8E",
".. c #FBDD8D",
"X. c #F7DC91",
"o. c #FCDE91",
"O. c #FBE18E",
"+. c #F6E490",
"@. c #FCE291",
"#. c #F7DFA1",
"$. c #FDE3A0",
"%. c #FBE7AA",
"&. c #C3C4C3",
"*. c #C9C9C9",
"=. c #CFCFD1",
"-. c gray87",
";. c #E7E7E7",
":. c #EAE6E5",
">. c #EAEAEA",
",. c #EAEEEF",
"<. c #F7EFEC",
"1. c #F9EFF0",
"2. c #F3F3F3",
"3. c gray96",
"4. c gray97",
"5. c #FBF6F3",
"6. c #F6F7F9",
"7. c #F9F9F9",
"8. c #FBFBF9",
"9. c #FCFCFA",
"0. c gray99",
"q. c #FDFDFD",
"w. c #FFFDFE",
"e. c #FEFEFE",
"r. c #FFFEFF",
"t. c white",
"y. c #FEFEFC",
"u. c #FFFFFF",
/* pixels */
"t.t.t.t.t.t.t.t.t.t.t.t.t.t.t.t.t.t.t.t.t.t.t.t.t.t.t.t.t.t.t.t.t.t.t.t.t.t.t.t.",
"t.t.t.t.t.t.t.t.t.t.t.t.t.t.t.t.t.t.t.t.t.t.t.t.t.t.t.t.t.t.t.t.t.t.t.t.t.t.t.t.",
"t.t.t.t.t.t.t.t.t.t.t.t.t.t.t.t.t.t.t.t.t.t.t.t.t.t.t.t.t.t.t.t.t.t.t.7.t.t.t.t.",
"t.t.t.t.t.t.t.t.t.t.t.t.t.t.t.t.t.t.t.t.t.t.t.t.t.t.t.t.t.t.t.t.t.t.t.t.t.t.t.t.",
"t.t.t.t.t.t.t.t.t.t.t.t.t.t.t.t.t.t.t.t.t.t.t.t.t.t.t.t.t.t.t.t.t.t.t.t.t.t.t.t.",
"t.t.t.t.t.t.t.t.t.t.t.t.t.t.t.t.t.t.t.t.t.t.t.t.t.t.t.y.t.t.t.t.t.y.t.t.t.t.t.t.",
"t.t.t.t.t.3.^ ! ! ! ! ! ! ! ! ! ! ! ! ! ! ! ! ! ! ! ! ! ! ! ! ! ! ! >.t.t.t.t.t.",
"t.t.t.t.t.;.X                                                       *.y.t.t.t.t.",
"t.t.t.3.&._ 2 1 < ; ; ; ; ; ; ; ; ; ; ; ; ; ; ; ; ; - %     - - ; ; ^ &.;.t.t.t.",
"t.0.0.-.. # ,.y.%.O.@.@.@.@.@.@.O.O.O.O.@.@.@.O.O.@.O.N   O @.+.@.+.;   ~ 0.t.y.",
"t.7.>.=.+ , :.5.@...O.....@.............O.......@.X.} M X & @.....| : o ! >.2.t.",
"t.)   > 6.<.k a r v c v A ..U v b c v v c c c U O.n   4 @.} a u a a ` @.4   e y.",
"t.(   , 4.1.k a r v v v C ..U v v c c c c b v U @.j   4 @.} a a p p ` ..5   e 0.",
"q.(   $ #.$.` ` E [ W W [ o.| Q W W Q Q Q W T ..@.j   4 @.o.R R ` ` ....5   e t.",
"t.(   $  .@.@.O.o.o...o.O.o.o.o.O.O.O.O.O.O.O.O...m   4 @.o...o.O.O.@.@.5   e 0.",
"q.(   $  .| V z z z R ..M 6 j @.[ z l l l l l P O.j   4 @.| l l z z ' @.5   e t.",
"t.)   $  .] d a k a J O.9   7 o.R p a a a a a H ..j   4 @.} a a d a ` o.5   e t.",
"t./   $ ..| d a g h L @.B j M ..R a a h h h h G O.j   4 @.| a a a a ` o.5   e 0.",
"t./   O  .| k a r v Y @...@...o.R a p v v v c U O.j   4 @.| a p a a ` @.5   j 0.",
"q.(   $  .| k a r v Z J ' o.] K F p a v v v c U O.j   4 @.| a i a a ` o.5   e 0.",
"t.(   $ X.| k a r v y a D ..H a a a a v v b v G ..j   4 @.| a a a a ` @.5   e t.",
"q.(   $  .| k a r v g s D ..J t t f f v v b v U @.j   4 @.| a i a a ` @.5   e q.",
"t./   $  .| k a r v v v C O.U c b b b v v v v U ..m   4 ..| a p a a ` O.5   e t.",
"t./   O  .| k p r v v v C O.U c v v v v v b v U O.j   4 @.| a p a a ` o.6   e q.",
"t.(   $ ..| k a r v x b A @.U c v v v b v c v U O.j   4 @.| a p a a ` @.6   e q.",
"q.(   $ ..| k a r v b b A @.G v v v v b v v v U O.j   4 @.| a p a a ` @.6   e t.",
"q.(   $ X.| k a r v b b A O.U v v v v v v v c U o.j   4 @.| a i a a ` @.5   e q.",
"t.(   $ ..| a a r b x b C O.U c b b v v v v c U O.m   3 @.| a a a a ` O.5   e t.",
"t./   @  . .J J Y U U U Q @.{ Y Y Y Y Y U U Y [ O.j   4 O...J J K J | o.5   e t.",
"t.(   @  .o. .....O.o.o.o.....o.@.o...@.X...O.O...j   4 O.o.O...O.@.o.@.5   e 0.",
"t./   X 9 9 9 9 w q 9 9 q q w 9 9 q w 9 w 9 9 9 9 3   % q 9 9 9 9 9 9 9 %   e t.",
"t.(                                                                         e t.",
"y.&.8 8 8 8 8 8 8 8 8 8 8 8 8 8 8 8 8 8 8 8 8 8 8 8 8 8 8 8 8 8 8 8 8 8 8 8 ) t.",
"t.t.t.t.0.t.t.0.t.t.0.t.t.t.t.0.0.t.t.t.0.t.t.t.0.t.t.0.0.t.t.t.t.0.0.t.t.7.t.t.",
"t.t.t.t.t.t.t.t.t.t.t.t.t.t.t.t.t.t.t.t.t.t.t.t.t.t.t.t.t.t.t.t.t.t.t.t.t.t.t.t.",
"t.t.t.t.t.t.t.t.t.t.t.t.t.t.t.t.t.t.t.t.t.t.t.t.t.t.t.t.t.t.t.t.t.t.t.t.t.t.t.t.",
"t.t.t.t.t.t.t.t.t.t.t.t.t.t.t.t.t.t.t.t.t.t.t.t.t.t.t.t.t.t.t.t.t.t.t.t.t.t.t.t.",
"t.t.t.t.t.t.t.t.t.t.t.t.t.t.t.t.t.t.t.t.t.t.t.t.t.t.t.t.t.t.t.t.t.t.t.t.t.t.t.t.",
"t.t.t.t.t.t.t.t.t.t.t.t.t.t.t.t.t.t.t.t.t.t.t.t.t.t.t.t.t.t.t.t.t.t.t.t.t.t.t.t.",
"t.t.t.t.t.t.t.t.t.t.t.t.t.t.t.t.t.t.t.t.t.t.t.t.t.t.t.t.t.t.t.t.t.t.t.t.t.t.t.t."
};
