/* XPM */
static char *ff64380de5164be1b24657668dbdc0a5CVen533hCIEd5i0z[] = {
/* columns rows colors chars-per-pixel */
"40 40 197 2 ",
"   c #1F1D2A",
".  c #22202D",
"X  c #3A262B",
"o  c #38272E",
"O  c #39312F",
"+  c #2E2C39",
"@  c #27293C",
"#  c #392935",
"$  c #373139",
"%  c #41282B",
"&  c #4D322C",
"*  c #45342A",
"=  c #53342A",
"-  c #523A2C",
";  c #573D24",
":  c #442E30",
">  c #4A3A38",
",  c #563B33",
"<  c #553933",
"1  c #6A2524",
"2  c #6C2924",
"3  c #722C24",
"4  c #7B2D23",
"5  c #69342A",
"6  c #75372A",
"7  c #793D3D",
"8  c #623637",
"9  c #56493E",
"0  c #59453C",
"q  c #6C4023",
"w  c #714322",
"e  c #785E3B",
"r  c #272441",
"t  c #292E48",
"y  c #322F42",
"u  c #3C3D51",
"i  c #293850",
"p  c #3D386D",
"a  c #413F4A",
"s  c #354056",
"d  c #484247",
"f  c #574747",
"g  c #474754",
"h  c #594F57",
"j  c #564E59",
"k  c #565255",
"l  c #595353",
"z  c #56525A",
"x  c #59535A",
"c  c #5E5D5B",
"v  c #58504D",
"b  c #6C5549",
"n  c #635C5C",
"m  c #675A5B",
"M  c #775E5A",
"N  c #674F4B",
"B  c #5E5C63",
"V  c #4B5A72",
"C  c #665C65",
"Z  c #6A6268",
"A  c #636164",
"S  c #78777D",
"D  c #873B24",
"F  c #85372B",
"G  c #873925",
"H  c #823C30",
"J  c #933F25",
"K  c #92421F",
"L  c #A1541E",
"P  c #B65E1C",
"I  c #BD611C",
"U  c #B47C1F",
"Y  c #BA7B1E",
"T  c #8F472E",
"R  c #994827",
"E  c #87463B",
"W  c #894736",
"Q  c #984C32",
"!  c #934931",
"~  c #9E5D3D",
"^  c #975436",
"/  c #BC4D22",
"(  c #B64B23",
")  c #BC5324",
"_  c #B25027",
"`  c #A1522B",
"'  c #9E6D20",
"]  c #AD7626",
"[  c #B1712E",
"{  c #C54F1F",
"}  c #CF561F",
"|  c #DC5C1F",
" . c #D35B1D",
".. c #E35D1F",
"X. c #C3661C",
"o. c #DA6C19",
"O. c #D57619",
"+. c #EC6E17",
"@. c #E6621E",
"#. c #E8651C",
"$. c #E86D19",
"%. c #ED7516",
"&. c #E37119",
"*. c #EB7119",
"=. c #EC7B19",
"-. c #E87B18",
";. c #F17B17",
":. c #C54E22",
">. c #C35122",
",. c #CC5321",
"<. c #C35429",
"1. c #D15720",
"2. c #D45921",
"3. c #DD5A21",
"4. c #E15C21",
"5. c #945544",
"6. c #9A745F",
"7. c #BF7045",
"8. c #AC6C53",
"9. c #9F7966",
"0. c #AD7B60",
"q. c #C6764A",
"w. c #C97E54",
"e. c #BC801E",
"r. c #CA891E",
"t. c #CB831D",
"y. c #D98D1D",
"u. c #D4881C",
"i. c #DE951D",
"p. c #EE8216",
"a. c #EA8518",
"s. c #F08116",
"d. c #E7971B",
"f. c #EB961B",
"g. c #E99B1C",
"h. c #F29D1B",
"j. c #F3A21A",
"k. c #CF8822",
"l. c #D5962C",
"z. c #ED8D26",
"x. c #F3A524",
"c. c #F3A928",
"v. c #F5A824",
"b. c #B39559",
"n. c #B78364",
"m. c #C79E4F",
"M. c #C6825D",
"N. c #C9A359",
"B. c #EAB556",
"V. c #F1BB55",
"C. c #E5AF55",
"Z. c #C88A68",
"A. c #CB916C",
"S. c #D9946A",
"D. c #DA996F",
"F. c #CF9570",
"G. c #DE9D73",
"H. c #DB8E64",
"J. c #DEBC72",
"K. c #E7B863",
"L. c #F5C96C",
"P. c #394283",
"I. c #3C6DA9",
"U. c #466A93",
"Y. c #4453A6",
"T. c #4353A8",
"R. c #4271B9",
"E. c #817C81",
"W. c #4F86BE",
"Q. c #4082BF",
"!. c #5390CC",
"~. c #458FD6",
"^. c #948484",
"/. c #AA9995",
"(. c #B3B08D",
"). c #9E9DA2",
"_. c #A7A4A9",
"`. c #B2ACAD",
"'. c #B7B6BB",
"]. c #CBC595",
"[. c #D1CA94",
"{. c #C3C0BF",
"}. c #F0E2A1",
"|. c #BFBFC1",
" X c #C3C2C4",
".X c #C7C7C9",
"XX c #CBCBCD",
"oX c #C8C6C9",
"OX c #CFCFD1",
"+X c #D3D2D4",
"@X c #DADADB",
"#X c #D7D5D9",
"$X c #E3E3E4",
"%X c #EDEDEC",
"&X c #F5F5F5",
"*X c #FFFFFF",
"=X c #F9F9F7",
/* pixels */
"*X*X*X*X*X*X*X*X*X*X*X*X%Xz g  X*X*X*X*X*X*X*X*Xa $ .X*X*X*X*X*X*X*X*X*X*X*X*X*X",
"*X*X*X*X*X*X*X*X*X*X*X%XA (.k |.*X*X*X*X*X*X*X*X@ (.c .X*X*X*X*X*X*X*X*X*X*X*X*X",
"*X*X*X*X*X*X*X*X*X*X&XB ].L.k |.*X*X*X*X*X*X*X*X+ b.}.c XX*X*X*X*X*X*X*X*X*X*X*X",
"*X*X*X*X*X*X*X*X*X*X%Xz N.l.f |.*X*X*X*X*X*X*X*X+ U V.9 .X*X*X*X*X*X*X*X*X*X*X*X",
"*X*X*X*X*X*X*X*X*X&Xl N.c.i.9 |.*X*X*X*X*X*X*X*X+ U j.V.9 OX*X*X*X*X*X*X*X*X*X*X",
"*X*X*X*X*X*X*X*X*X&Xv k.j.i.9 |.*X*X*X*X*X*X*X*X+ U j.V.9 XX*X*X*X*X*X*X*X*X*X*X",
"*X*X*X*X*X*X*X*X*X&Xl r.j.i.9 {.=X=X=X=X&X=X=X*X+ U j.z.- XX*X*X*X*X*X*X*X*X*X*X",
"*X*X*X*X*X*X*X*X*X&Xl r.j.i.9 '.U.M N l x x z $X+ U j.s.- XX*X*X*X*X*X*X*X*X*X*X",
"*X*X*X*X*X*X*X*X*X&Xn X.h.i.* d ] r.r.r.m.N.].A . U h.-.0 XX*X*X*X*X*X*X*X*X*X*X",
"*X*X*X*X*X*X*X*X*X*X+Xb r.-.; ' i.j.j.j.c.v.L.[.O Y p.w `.&X*X*X*X*X*X*X*X*X*X*X",
"*X*X*X*X*X*X*X*X*X*X&Xn I -.u.g.j.j.j.j.j.j.v.L.k.a.-.; .X*X*X*X*X*X*X*X*X*X*X*X",
"*X*X*X*X*X*X*X*X*X*X=X+Xb u.j.h.j.j.j.j.j.j.j.v.j.p.&.0 XX*X*X*X*X*X*X*X*X*X*X*X",
"*X*X*X*X*X*X*X*X*X*X*X%Xv X.a.a.a.p.p.p.a.p.s.p.p.;.q ).&X*X*X*X*X*X*X*X*X*X*X*X",
"*X*X*X*X*X*X*X*X*X*X*X@Xf e.y.y.i.u.y.y.y.y.y.y.y.y.* 0 {.=X*X*X*X*X*X*X*X*X*X*X",
"*X*X*X*X*X*X*X*X*X$X@XM o * - - - - - - - - - - ; * X ] e  X$X$X=X*X*X*X*X*X*X*X",
"*X*X*X*X*X*X*X*X=XS x ` 5 ^ ~ ~ ~ ~ ~ ~ ~ ~ ~ ~ ^ 5 R &.t.b z c @X*X*X*X*X*X*X*X",
"*X*X*X*X*X*X*X*X&Xk L  .F w.S.D.S.S.S.S.S.S.S.S.S.W 4 F o.O.e.9 #X*X*X*X*X*X*X*X",
"*X*X*X*X*X*X*X*X=Xh >.3.F Z.F.b n.G.G.G.f A.G.G.G.E 8.Z.T o.-.> +X*X*X*X*X*X*X*X",
"*X*X*X*X*X*X*X*X&Xj / 3.F Z.A.> 0.G.G.G.O Z.G.G.G.A.w.S.W X.o.- +X*X*X*X*X*X*X*X",
"*X*X*X*X*X*X*X*X*X@XN 3 <.H.q.Q T Q Q Q F 7.D.G.G.5.3 6 / @.| , +X*X*X*X*X*X*X*X",
"*X*X*X*X*X*X*X*X&XZ _  .| ` R t.d.d.d.C.K.^ Q q.q.F ( 3.......& +X*X*X*X*X*X*X*X",
"*X*X*X*X*X*X*X=XZ _ D T R y.f.j.j.j.j.v.v.f.B.Q T :.4.4.G % # {.=X*X*X*X*X*X*X*X",
"*X*X*X*X*X*X*X=Xh P D u.f.=.&.K 2 3 3 3 o.;.j.g.K.[ J 1.3.& {.=X*X*X*X*X*X*X*X*X",
"*X*X*X*X*X*X*Xn P +. .G 1 1 4 / 4.3.3.3.4 2 2 &.%.z.B.W 1 o OX*X*X*X*X*X*X*X*X*X",
"*X*X*X*X*X*X*Xz I %.*.@.......*.%.*.%.@.4...4.4 1 1 1 :.&.- OX*X*X*X*X*X*X*X*X*X",
"*X*X*X*X*X*X*Xk X.*.%.+.*.*.*.%.%.%.%.*.*.+...:.:.:.:.#.$.- OX*X*X*X*X*X*X*X*X*X",
"*X*X*X*X*X*X=Xx X.*.%.%.%.%.%.%.%.%.%.%.%.%.+.+.+.+.+.%.*.- OX*X*X*X*X*X*X*X*X*X",
"*X*X*X*X*X*X*Xx >.+.%.%.*.%.%.%.%.%.%.%.%.%.*.;.%.%.%.%.%.- OX*X*X*X*X*X*X*X*X*X",
"*X*X*X*X*X*X*Xj P +.+.%.%.%.%.%.%.%.%.;.%.%.%.;.%.%.%.%.o.< +X*X*X*X*X*X*X*X*X*X",
"*X*X*X*X*X*X=XB _ @.+.;.%.%.%.%.%.%.%.%.%.%.%.%.%.*.%.#.6 `.&X*X*X*X*X*X*X*X*X*X",
"*X*X*X*X*X*X*X#XN >.@.+.%.%.%.%.%.%.%.%.%.%.%.%.%.#.4.3.& OX*X*X*X*X*X*X*X*X*X*X",
"*X*X*X*X*X*X*X=XC _ ..#.#.*.%.%.%.%.*.%.%.%.%.@.@.@.3.5 + |.=X*X*X*X*X*X*X*X*X*X",
"*X*X*X*X*X*X*X*X@XM ) 4.4.@.@.@...@.@.@.@.@.@...3.2.5 p I.V OX=X*X*X*X*X*X*X*X*X",
"*X*X*X*X*X*X*X*X*X@XM ) } 1.} } } 1.2.1.1.1.,.1.& : p R.~.Q.V #X*X*X*X*X*X*X*X*X",
"*X*X*X*X*X*X*X*X*X=XoXN < : X : : : : : : : : : m C y I.!.!.u +X*X*X*X*X*X*X*X*X",
"*X*X*X*X*X*X*X*X*X&XE.6.9.U.t d j j j m j j j j C C + i ^./.d OX*X*X*X*X*X*X*X*X",
"*X*X*X*X*X*X*X*X*X&Xx n.F.g @ U.!.R.W.W.W.W.!.R.W.W.i   0.D.0 OX*X*X*X*X*X*X*X*X",
"*X*X*X*X*X*X*X*X*X*XOXx f _.u P.T.T.Y.Y.Y.Y.Y.T.T.T.t ).C > `.&X*X*X*X*X*X*X*X*X",
"*X*X*X*X*X*X*X*X*X*X=X@X#X$Xd < H y r r @ r r @ 7 7 o oX$X+X&X*X*X*X*X*X*X*X*X*X",
"*X*X*X*X*X*X*X&X&X=X=X=X$XZ 6 F D X _.XXXXXXOX+ F D 6 f XX&X&X*X&X&X*X*X*X*X*X*X"
};
