/* XPM */
static char *_06e9e8f293341d7efa46dddb6e91a97vsuFXXgjI2tfFcVf[] = {
/* columns rows colors chars-per-pixel */
"40 40 165 2 ",
"   c #070705",
".  c #0B0404",
"X  c #0B0B04",
"o  c #0F0E0A",
"O  c #110E07",
"+  c #131203",
"@  c #191304",
"#  c #1E1A04",
"$  c #17180A",
"%  c #1B1C0C",
"&  c #14140B",
"*  c #080D11",
"=  c #050C14",
"-  c #031016",
";  c #02141D",
":  c #08141C",
">  c #0C1A1D",
",  c #1D1717",
"<  c #131C16",
"1  c #151B1B",
"2  c #201706",
"3  c #241D03",
"4  c #2C1905",
"5  c #261909",
"6  c #2F1C0B",
"7  c #152018",
"8  c #262405",
"9  c #2B2405",
"0  c #2E2A04",
"q  c #22210D",
"w  c #302403",
"e  c #332C03",
"r  c #382F06",
"t  c #3B3505",
"y  c #0B1B24",
"u  c #011B28",
"i  c #041A27",
"p  c #101721",
"a  c #061E36",
"s  c #0B2025",
"d  c #05212E",
"f  c #042434",
"g  c #062739",
"h  c #032A3C",
"j  c #4A0206",
"k  c #57050B",
"l  c #4A1A09",
"z  c #6B030A",
"x  c #43230A",
"c  c #552C0E",
"v  c #443D03",
"b  c #493E06",
"n  c #783F14",
"m  c #773D15",
"M  c #4B4204",
"N  c #524404",
"B  c #554D04",
"V  c #594F04",
"C  c #5D5404",
"Z  c #635504",
"A  c #665C04",
"S  c #6C5F03",
"D  c #754113",
"F  c #6E6304",
"G  c #716405",
"H  c #746904",
"J  c #7A6D04",
"K  c #766A08",
"L  c #7D7103",
"P  c #042C44",
"I  c #032F48",
"U  c #04334C",
"Y  c #043754",
"T  c #023850",
"R  c #033C5A",
"E  c #034465",
"W  c #03476E",
"Q  c #044A6C",
"!  c #034C73",
"~  c #024F7B",
"^  c #035175",
"/  c #03537A",
"(  c #757978",
")  c #8B050E",
"_  c #97010A",
"`  c #DF0915",
"'  c #D8101B",
"]  c #E2070D",
"[  c #E40712",
"{  c #874614",
"}  c #9E531A",
"|  c #806F03",
" . c #857404",
".. c #8D7D04",
"X. c #8D7908",
"o. c #867B05",
"O. c #927E03",
"+. c #DC7D05",
"@. c #C1651A",
"#. c #E4791E",
"$. c #F07E1E",
"%. c #DD7421",
"&. c #E87920",
"*. c #82474D",
"=. c #EC4D51",
"-. c #8E8005",
";. c #958403",
":. c #9B8C06",
">. c #A48E04",
",. c #A59304",
"<. c #AD9C01",
"1. c #A99405",
"2. c #B29D02",
"3. c #B5A204",
"4. c #BBA403",
"5. c #BDAC03",
"6. c #C0A702",
"7. c #C3AC03",
"8. c #C8AD04",
"9. c #C5B104",
"0. c #CBB304",
"q. c #CEBC05",
"w. c #D0B703",
"e. c #D4BA03",
"r. c #D8BE02",
"t. c #D5BC08",
"y. c #DABB08",
"u. c #FB8223",
"i. c #DDC403",
"p. c #E1C500",
"a. c #E3CB03",
"s. c #EACE04",
"d. c #ECD203",
"f. c #EED808",
"g. c #F4D602",
"h. c #F9D702",
"j. c #F5D903",
"k. c #FDDC02",
"l. c #FEDD08",
"z. c #FCE004",
"x. c #035E8A",
"c. c #045884",
"v. c #02618B",
"b. c #026292",
"n. c #05689F",
"m. c #026EA5",
"M. c #0270A5",
"N. c #0472AA",
"B. c #0375B1",
"V. c #047AB7",
"C. c #027FBC",
"Z. c #0384C5",
"A. c #0286C9",
"S. c #0389CE",
"D. c #038ED4",
"F. c #0393DA",
"G. c #0390D5",
"H. c #0395E1",
"J. c #039BE6",
"K. c #029EEC",
"L. c #069EF2",
"P. c #02A0ED",
"I. c #02A4F5",
"U. c #01A6FE",
"Y. c #02A8FD",
/* pixels */
"U.U.U.U.U.U.U.U.U.U.U.U.U.U.U.U.U.U.U.Y.U.U.U.U.U.U.U.U.U.U.U.U.U.U.U.U.U.U.U.U.",
"U.U.U.U.U.U.U.U.U.U.U.U.U.U.U.U.U.U.U.U.U.Y.U.U.U.U.U.U.U.U.U.U.U.U.U.U.U.U.U.U.",
"U.U.U.U.U.U.U.U.U.U.U.U.U.Y.U.U.Y.Y.U.U.Y.Y.U.U.U.U.U.U.U.U.U.U.U.U.U.U.U.U.U.U.",
"U.U.U.U.U.U.U.U.U.U.U.Y.U.U.U.I.L.L.I.I.Y.U.U.U.U.U.U.U.U.U.U.U.U.U.U.U.U.U.U.U.",
"U.U.U.U.U.U.U.U.U.U.U.Y.I.Z.! g 1 7 y R N.I.U.U.U.U.U.U.U.U.U.U.U.U.U.U.U.U.U.U.",
"U.U.U.U.U.U.U.U.Y.I.U.F.Y $ L 2.q.i.7.;.0 P A.I.Y.Y.Y.U.U.U.U.U.U.U.U.U.U.U.U.U.",
"U.U.U.U.U.U.U.U.U.U.A.; J j.k.k.l.k.k.k.j.;.$ v.G.^ W I.U.U.U.U.U.U.U.U.U.U.U.U.",
"U.U.U.U.U.U.U.U.Y.F.> :.z.l.k.k.k.k.k.k.k.j.r.M 9 9 U U.U.U.U.U.U.U.U.U.U.U.U.U.",
"U.U.U.U.U.U.U.U.I.Y  .h.k.k.k.k.k.k.k.k.k.k.k.k.i.9 V.U.U.U.U.U.U.U.U.U.U.U.U.U.",
"U.U.U.U.Y.U.U.U.C.6 a.j.g.g.h.h.g.g.k.h.h.g.j.h.r / I.U.U.U.U.U.U.U.U.U.U.U.U.U.",
"U.U.U.U.U.Y.Y.Y.P   # 3 l 4 l 4 # 3 3 3 # 3 e f.B b.I.U.U.U.U.U.U.U.U.U.U.U.U.U.",
"U.Y.U.Y.U.U.Y.Y.f   . z [ ) [ _ . 3 4.4.5.;.3 g.,.T I.U.U.U.U.U.U.U.U.U.U.U.U.U.",
"U.U.Y.I.I.Y.Y.b.. e N j [ ] =.*.w 8.k.k.k.d.7.h.0.; Y.U.U.U.U.U.U.U.U.U.U.U.U.U.",
"U.U.K.i * i = 6 @.4 <.V k ' ( 9 7.k.k.k.k.k.k.l.e.- I.Y.U.U.U.U.U.U.U.U.U.U.U.U.",
"U.U.J., #.&.&.u.$.D v X.-.+...1.k.k.k.k.k.k.k.k.5.a Y.U.U.U.U.U.U.U.U.U.U.U.U.U.",
"U.U.I.U } $.$.$.u.$.{ 4 5.l.k.l.k.k.k.k.k.k.k.k.J ! U.U.U.U.U.U.U.U.U.U.U.U.U.U.",
"U.U.Y.D.p m &.u.u.u.u.D o.k.k.k.k.k.k.k.k.k.k.a.7 A.I.Y.Y.U.U.U.U.U.U.U.U.U.U.U.",
"U.U.U.Y.F.R > x m { c 2 0.k.k.k.k.k.k.k.k.k.d.N ^ Y.Y.U.U.U.U.U.U.U.U.U.U.U.U.U.",
"U.U.Y.U.U.I.F.m.x./ E e k.k.k.k.k.k.k.k.k.t.M Y I.I.I.U.U.U.U.U.Y.Y.U.Y.U.U.U.U.",
"U.U.U.U.U.U.U.Y.Y.U.F.: a.k.k.k.k.k.k.k.Z   I C.D.I.U.U.U.U.U.Y.Y.I.Y.Y.V.S.Y.U.",
"U.U.U.U.U.U.U.Y.U.P.f J k.k.k.k.k.k.k.k.G b M b 0 o u Q A.I.Y.U.Y.I.I.! O R U.U.",
"U.U.U.U.U.U.U.Y.J.P F h.k.k.k.k.k.k.k.l.k.k.k.k.z.k.7.H 9 d x.D.I.D.U v V T Y.U.",
"U.U.U.U.U.U.Y.I.R C g.k.k.k.k.l.d.r.e.s.k.k.k.l.k.k.k.k.s.3.V 1 u , J 7.+ R Y.U.",
"U.U.U.U.U.U.Y.N.t a.k.k.k.k.a.K 9 e e 8 C 9.j.k.k.k.k.k.l.k.k.s.e.f.0.e 9 ! Y.U.",
"U.U.U.U.U.U.I.a 5.l.k.k.k.a.0 G s.k.k.s.O.0 r o.7.p.p.r.3.;.h.k.k.K q :.v N.Y.U.",
"U.U.U.U.U.U.D.8 k.k.k.k.k.A A j.k.k.k.l.k.d.2.S 9 O + @ 3 3 j.k.k.L e.a.< K.U.U.",
"U.U.U.U.U.U.m.B k.k.k.k.j.@ a.k.k.k.k.k.k.z.k.k.k.k.g.h.F H k.k.z.k.k.X.Q I.U.U.",
"U.U.U.U.U.I.x.F k.k.l.k.9.0 l.k.k.k.k.k.k.k.k.k.o.B v @ + e.k.k.k.k.j.v C.U.U.U.",
"U.U.U.U.U.U.v.G k.k.k.z.0.9 z.l.k.k.k.k.k.k.k.l.0.2.7.F F j.k.k.k.k.w.< K.Y.U.U.",
"U.U.U.U.U.U.n.C k.k.k.k.j.@ i.k.k.k.k.k.k.k.k.w... .C 3 i.k.k.k.k.k.-.R U.U.U.U.",
"U.U.U.U.U.U.Z.t z.k.k.k.k.G B d.k.k.k.k.k.k.k.3.C v   ,.k.k.z.k.k.h.8 C.U.U.U.U.",
"U.U.U.U.U.I.I.: w.k.k.k.k.d.M M a.k.k.k.k.l.l.k.,.3 ;.k.k.k.k.k.l.>.P I.U.U.U.U.",
"U.U.U.U.U.Y.U.N.0 a.k.k.k.k.g.O.# M J ..O.J C 9 b 8.k.k.k.k.k.l.i.& A.Y.U.U.U.U.",
"U.U.Y.U.U.U.U.U.^ 8 9.l.l.k.k.l.s.<.J Z Z H :.r.k.k.k.k.k.k.k.i.9 v.I.Y.U.U.U.U.",
"U.U.U.U.U.U.U.U.I.m.y C 4.j.k.k.k.k.k.k.k.k.k.k.k.l.k.k.z.a.-.$ x.U.U.U.U.U.U.U.",
"U.U.U.U.U.U.U.U.U.U.F.x.y 0 C ..3.0.e.r.e.e.e.e.0.7.1.J M % U C.I.Y.Y.Y.U.U.U.U.",
"U.U.Y.Y.U.U.U.U.U.U.U.Y.I.D.m.~ T h f d f f f g h I E c.V.H.U.U.Y.Y.U.U.U.U.U.U.",
"U.U.U.U.U.U.U.U.U.U.Y.I.U.Y.Y.I.Y.U.Y.U.U.U.U.U.U.I.U.U.U.Y.U.U.U.U.U.U.U.U.U.U.",
"U.Y.U.U.Y.U.U.U.U.U.U.U.U.U.Y.U.U.U.U.U.U.U.U.U.U.U.U.Y.U.U.U.U.U.U.U.U.U.U.U.U.",
"U.U.U.U.U.U.U.Y.U.U.U.U.U.U.U.U.U.U.U.U.U.U.U.U.U.U.U.U.U.U.U.U.U.U.U.U.U.U.U.U."
};
