/* XPM */
static char *b281f817deb74f75a87146f49dcd7154YdhxOfhU5AJYKmxf[] = {
/* columns rows colors chars-per-pixel */
"40 40 211 2 ",
"   c #020202",
".  c #0C0C08",
"X  c #1A1813",
"o  c #18140D",
"O  c #201C12",
"+  c #2A261A",
"@  c #332C1B",
"#  c #39321F",
"$  c #1F1D2A",
"%  c #1F2120",
"&  c #212028",
"*  c #3A282A",
"=  c #2E2C39",
"-  c #27283C",
";  c #382834",
":  c #373338",
">  c #39312F",
",  c #42282B",
"<  c #4A332B",
"1  c #523A2C",
"2  c #563A27",
"3  c #452E30",
"4  c #4A3A38",
"5  c #563B33",
"6  c #533633",
"7  c #512F2D",
"8  c #6C2A24",
"9  c #6A2525",
"0  c #722C24",
"q  c #7B2D23",
"w  c #69342B",
"e  c #75372A",
"r  c #793D3D",
"t  c #623637",
"y  c #534A2E",
"u  c #574A3E",
"i  c #574738",
"p  c #6D492F",
"a  c #272441",
"s  c #292E47",
"d  c #31374D",
"f  c #3D386E",
"g  c #413F4A",
"h  c #354056",
"j  c #494248",
"k  c #564747",
"l  c #564E59",
"z  c #584F57",
"x  c #565354",
"c  c #56525A",
"v  c #5A545A",
"b  c #5E5E5E",
"n  c #595354",
"m  c #4C4A51",
"M  c #6C5549",
"N  c #645B5C",
"B  c #665A5B",
"V  c #775E5A",
"C  c #664E4A",
"Z  c #756D45",
"A  c #5E5C64",
"S  c #4C5A72",
"D  c #665D65",
"F  c #656267",
"G  c #7C7C7C",
"H  c #78777D",
"J  c #863926",
"K  c #8B3E2C",
"L  c #92421F",
"P  c #AF591D",
"I  c #BD601C",
"U  c #B47C1E",
"Y  c #BA7B1E",
"T  c #994828",
"R  c #884739",
"E  c #964B31",
"W  c #9E5D3D",
"Q  c #975436",
"!  c #8F472E",
"~  c #BB4C22",
"^  c #B44F25",
"/  c #BC5324",
"(  c #B25525",
")  c #A1522B",
"_  c #AD7626",
"`  c #AC6F29",
"'  c #D95B1E",
"]  c #CA531F",
"[  c #E35D1F",
"{  c #C4671C",
"}  c #DA6C19",
"|  c #D67619",
" . c #EC6E17",
".. c #E6621E",
"X. c #E9691B",
"o. c #ED7516",
"O. c #EC7A15",
"+. c #E47219",
"@. c #EC7119",
"#. c #E87819",
"$. c #F17C15",
"%. c #C54E21",
"&. c #C65323",
"*. c #D25720",
"=. c #DD5A21",
"-. c #D45922",
";. c #C74D3A",
":. c #CA4C3C",
">. c #CD523E",
",. c #E25C21",
"<. c #D96326",
"1. c #E86320",
"2. c #945544",
"3. c #9A745F",
"4. c #B27252",
"5. c #9F7966",
"6. c #B07F61",
"7. c #CC5241",
"8. c #C6764A",
"9. c #DA7C58",
"0. c #C97E54",
"q. c #BC801E",
"w. c #CA891E",
"e. c #CB841E",
"r. c #DA8D1D",
"t. c #D4881C",
"y. c #DE951D",
"u. c #F4860B",
"i. c #EE8216",
"p. c #EB8318",
"a. c #F18416",
"s. c #EA991C",
"d. c #F29D1C",
"f. c #F3A21A",
"g. c #F2A217",
"h. c #D28F27",
"j. c #F3A524",
"k. c #F3A928",
"l. c #ED8D26",
"z. c #BA8565",
"x. c #B39559",
"c. c #CE8B56",
"v. c #C9A359",
"b. c #F2BC56",
"n. c #E8B356",
"m. c #C88A68",
"M. c #CB916D",
"N. c #DA946A",
"B. c #DC996F",
"V. c #DE9D73",
"C. c #D6926B",
"Z. c #E09F75",
"A. c #DEBC72",
"S. c #ECB375",
"D. c #E8B864",
"F. c #F5C97C",
"G. c #FBD279",
"H. c #F5C86D",
"J. c #394381",
"K. c #3C6DA9",
"L. c #466A93",
"P. c #4453A6",
"I. c #4353A8",
"U. c #4271B9",
"Y. c #817C82",
"T. c #4F86BE",
"R. c #4181BF",
"E. c #5390CC",
"W. c #458FD6",
"Q. c #9E9E9E",
"!. c #948484",
"~. c #AA9995",
"^. c #A2A39F",
"/. c #B3B08D",
"(. c #9E9DA2",
"). c #A3A2A3",
"_. c #A9A9A9",
"`. c #A8A9A9",
"'. c #B2ACAD",
"]. c #B6B7B9",
"[. c #CDC795",
"{. c #F3C682",
"}. c #F4CB83",
"|. c #FAD689",
" X c #F6DC8E",
".X c #FADC8C",
"XX c #F7D689",
"oX c #FADE91",
"OX c #F7DB91",
"+X c #FBE18D",
"@X c #FCE191",
"#X c #F6E490",
"$X c #C3C0BF",
"%X c #F7DFA1",
"&X c #FCE4A3",
"*X c #F2E2AC",
"=X c #BFBFC1",
"-X c #CBCBCD",
";X c #C5C4C6",
":X c #CECED1",
">X c #D2D2D4",
",X c #DBDADC",
"<X c #D4D3D8",
"1X c #D0CED1",
"2X c #E8E2D2",
"3X c #EAEAEA",
"4X c #E6E5E5",
"5X c #F6F6F6",
"6X c #FFFFFF",
"7X c #F9F7F6",
"8X c #F4EFEF",
/* pixels */
"6X6X6X6X6X6X6X6X6X6X6X6X6Xc m ;X6X6X6X6X6X6X6X6Xg : ;X6X6X6X6X6X6X6X6X6X6X6X6X6X",
"6X6X6X6X6X6X6X6X6X6X6X6XF /.x =X6X6X6X6X6X6X6X6X- /.b -X6X6X6X6X6X6X6X6X6X6X6X6X",
"6X6X6X6X6X6X6X6X6X6X6XA [.A.n =X6X6X6X6X6X6X6X6X= x.%Xb -X6X6X6X6X6X6X6X6X6X6X6X",
"6X6X6X6X6X6X6X6X6X6X6Xx v.h.u ;X6X6X6X6X6X6X6X6X= U b.u -X6X6X6X6X6X6X6X6X6X6X6X",
"6X6X6X6X6X6X6X6X6X6Xx v.k.y.u =X6X6X6X6X6X6X6X6X= U f.b.i -X6X6X6X6X6X6X6X6X6X6X",
"6X6X6X6X6X6X6X6X6X6Xx h.f.y.u =X6X6X6X6X6X6X6X6X= U f.b.u -X6X6X6X7X6X6X6X6X6X6X",
"6X6X6X6X6X5X).Q.^.^.x w.f.y.u =XQ.^.^.^.Q.).Q.Q.= U f.l.1 -XQ.Q.Q.Q.3X6X6X6X6X6X",
"6X6X6X6X6X4Xo       x w.f.y.u ].L.V C n v v v Q.= U f.i.1 -X        -X6X6X6X6X6X",
"6X6X6X5X;X].4 = @ @ N { g.y.< j _ w.w.w.v.v.[.F & U d.O.5 1X@ @ @ @ ).;X4X6X6X6X",
"6X6X6X,X. X 3X6X&X#X<XM r.| y P s.f.f.g.f.k.H.[.> Y a.p '.O #X+X@X#X@   Q.6X6X6X",
"6X7X4X:Xo & 4X7X@X.X+XN I O.r.s.j.g.f.g.g.g.k.H.h.p.o.2 ;X+ +XXX.XXX# o Q.4X5X7X",
"6X_.  % 7X8X7.:.#.u.u.>XM w.f.g.f.g.f.f.f.f.g.j.g.i.} i 1X|.:.;.:.:.{.+Xy   G 6X",
"6X`.  & 7X8X7.:.#.u.u.a.k | p.p.p.p.i.p.p.p.i.i.i.$.w Q.+X|.:.:.:.:.F..Xy   G 6X",
"6X`.  X &X@X{.{.G.G.G.,Xk U r.r.r.r.r.r.r.r.r.r.r.r.2 u $X@X{.F.}.{..XoXy   G 6X",
"6X`.  O OX@XoX.XoX&X4XV = < 1 1 1 1 1 1 1 1 1 < 2 < * _ p ;X2X2X@X+X@X+Xy   G 6X",
"6X`.  O  X.Xc.9.9.L.B ) 8 Q W W W W W W W W W W W w T +.h.M l A ,X9.}.@Xy   G 6X",
"6X`.  O  XXX>.:.:.z ) -.J c.N.N.N.N.N.N.N.N.N.N.N.R 0 J <.e.Y 4 <X:.{.+Xi   G 6X",
"6X`.  O  XXX>.:.<.n %.=.J m.N.M z.V.V.V.k M.V.V.Z.R 4.0.! } #.i <X:.{.+Xy   G 6X",
"6X`.  O oXXX7.:.O.z %.-.e m.M.k 6.V.V.V.> m.V.V.Z.M.0.N.R { +.5 <X:.{.@Xy   z.6X",
"6X`.  O .X.X7.:.O.,XC 0 %.N.4.E ! Q E E q 8.B.V.V.2.e e ~ [ [ 6 <X:.{.@Xy   L.6X",
"6X`.  O OX|.7.:.O.F ( ' =.) T | s.s.s.n.D.E Q 8.8.J ~ ] [ [ [ 7 <X:.{.@Xy   H 6X",
"6X`.  O  X|.7.:.F P J K T r.s.d.f.d.f.j.j.s.n.E ! %.[ [ J , , $X:.:.{.@Xy   G 5X",
"6X`.  O  X|.>.:.k I J t.s.$.+.L 8 0 0 0 } $.f.s.D.W K ' -.7 ;X:.:.:.}.@Xy   x.5X",
"6X`.  O  XXX7.b I  .' J 9 9 q ~ [ =.=.=.q 8 8 +.$.d.b.R 9 ; :X:.:.:.{.#Xy   T.5X",
"6X`.  O .XXX7.v I o.@.[ [ [ ,.@.o. .$.[ ,.,.,.0 9 9 9 %.X.1 1X:.:.:.{.oXi   H 5X",
"6X`.  O  XXX:.v { o.o. .@.@.@.o.o.o.o.o.o. .,.&.%.%.%.X. .1 1X:.:.:.{.oXy   z.7X",
"6X`.  O .X|.7.v I o.o.o.o.o.o.o.o.o.o.o.@.o. . . . . .o.o.5 >X;.:.:.{.@Xy   5.7X",
"6X`.  O .X|.>.v / @.o.o.o.o.o.o.o.o.o.o.o.o.o.o.@.o.o.o.o.1 -X;.7.:.{.+Xy   T.7X",
"6X_.  O OX XS.v ~ @.o.o.o.o.o.o.o.o.o.o.o.o.o.o.o.o.o.o.} 6 >XS.S.S..XoXy   G 6X",
"6X_.  X XXoX+XA ^ ..@.o.o.o.o.o.o.o.o.o.o.o.o.$.o.o.o.X.e '..X.X+X@XoX.Xy   G 6X",
"6X`.  . Z Z Z ,XM &.1. .o.o.o.o.o.o.o.o.o.o.o.o.o.X.1.-.7 -XZ Z Z Z Z Z +   G 6X",
"6X`.            D ^ [ 1.[ @.$.o.o.o.o.o.o.o.o.....,.=.w = =X                G 6X",
"6X;Xb b b b b b ,XV / ,.[ [ ....[ [ ........[ ,.=.-.w f K.S -Xb b b b b b b _.6X",
"6X6X6X6X6X6X6X6X6X,XV / *.*.' ] ' ] -.] ' -.*.*.7 3 f U.W.E.S <X6X6X6X6X6X6X6X6X",
"6X6X6X6X6X6X6X6X6X6X;XC 6 3 * , 3 3 3 7 3 3 3 3 z D d K.E.E.d >X6X6X6X6X6X6X6X6X",
"6X6X6X6X6X6X6X6X6X6XY.3.5.L.s j l l z z l l l l D D : s !.~.j >X6X6X6X6X6X6X6X6X",
"6X6X6X6X6X6X6X6X6X6Xv z.M.m a L.T.E.T.T.T.T.T.T.E.U.d $ 6.B.k :X6X6X6X6X6X6X6X6X",
"6X6X6X6X6X6X6X6X6X6X:Xv k `.d J.P.P.P.P.I.I.I.I.P.P.s Q.B g '.6X6X6X6X6X6X6X6X6X",
"6X6X6X6X6X6X6X6X6X6X6X,X<X4Xm 5 r a a a - a a - r r * ;X,X<X6X6X6X6X6X6X6X6X6X6X",
"6X6X6X6X6X6X6X6X6X6X6X6X8XD e K J * _.-X-X-X-X= K K J k -X6X6X6X6X6X6X6X6X6X6X6X"
};
